<svg xmlns="http://www.w3.org/2000/svg" viewBox="0 0 222.31 282.75"><path d="M158.84,127.89c27-33.92,48.84-34.45,58.24-21.39,10.22,14.2,6.86,34.86-22.58,65.34-10.13,10.48-26.33,33.76-34.19,28C63.56,129.26,122.53,80.73,158.84,127.89Zm3.1,62.44a3.78,3.78,0,0,0,4.49-.68c16.25-16.75,25.7-25.33,39.75-43.93,18.59-24.61,2.22-63-44.23-9a3.39,3.39,0,0,1-5,.19c-12-12.05-30-33.07-41-9C109.93,141.29,142.44,180,161.94,190.33Z"/><path d="M137.14,16.26c19.43-30.26,37.93-5.62,27.08,18.47-8.6,21.52-14.05,32.61-28,50.33-4.88,6.19-11.76-20.18-16.67-32.38C99.37-10,127.05-9.22,137.14,16.26Zm-2.36,61.48c51.41-73.68,15.42-85.69,5.3-55.11-.59,1.79-3.58,19.35-5.1,14C129,15.69,126.5-1.89,121.22,10.33,114.53,25.82,127.05,57.78,134.78,77.74Z"/><path d="M43.44,223c17.91-.58,18.85,12.69,25,17,29.16-27.21,60.64-12.28,32.81,13-13.78,12.51-28.24,32.28-35.15,29.52C55,274.46,9.89,226.31,43.44,223Zm4.78,7.49c-7.33-1.32-11.68,4.46-7.88,13.38,3.22,7.54,24.08,36.56,29.87,31.9,59.88-48.25,27.18-52.79,2.64-28.93C65,254.39,60,232.73,48.22,230.44Z"/><path d="M32.37,141c5.46-12.78,26.87-26.09,30.59-5.49,2.3,12.71-18.73,56.15-31.71,47.26C-26,143.54,8.35,98.79,32.37,141ZM6.44,137.06C5.59,153.49,33.11,183.65,37.8,177c7.57-10.75,31.62-48.54,11.74-45-9.75,1.73-16.19,21-19.11,17.64C23.27,141.39,8.86,116.6,6.44,137.06Z"/><path d="M35.34,33.38C38.75,23.27,52.31,7,59.93,18.8a15.46,15.46,0,0,1,2.22,9.84C60.66,44.64,52.62,58,46.36,74a2.83,2.83,0,0,1-2.9,1.86C26.1,73.72,4.4,6.56,35.34,33.38Zm7.58,37.2c3.72-6.37,24-56.49,8.71-49.07C36,29.08,40.16,53.69,32.73,38.72c-2-4-5.87-6.46-8.17-2.44C22.43,40,31.14,62.29,42.92,70.58Z"/></svg>