<svg xmlns="http://www.w3.org/2000/svg" viewBox="0 0 250.32 520.31"><defs><style>.a{fill:#ffb3a6;}.b{fill:#f57a64;}.c{fill:#212e38;}.d{fill:#fff;}.e{fill:#ffcd61;}.f{fill:#9bdede;}</style></defs><path class="a" d="M123.14,386.48c-.24,1.18-.5,2.33-.7,3.48q-1,5.79-2,11.59c-.63,3.82-1.3,7.64-1.85,11.48-.37,2.53-.62,5.07-.83,7.61-.32,3.95-.57,7.91-.84,11.86-.08,1.14-.17,2.29-.21,3.43-.13,3.78-.34,7.57-.33,11.35,0,2.69.3,5.39.48,8.08.13,2,.26,4.07.45,6.09.21,2.32.45,4.64.75,6.95s.57,4.85,1.12,7.22c1.35,5.75,2.87,11.47,4.3,17.21a22.52,22.52,0,0,1,.88,7,6.68,6.68,0,0,1-2.07,4.87c-.39.34-.84.6-1.41,1,.21.65.44,1.38.68,2.1.54,1.61,1.2,3.19,1.61,4.83a8.6,8.6,0,0,1,.36,3.71,2.49,2.49,0,0,1-2.16,2.22,24.73,24.73,0,0,1-3.74.41c-4.34.06-8.68,0-13,.09a3.06,3.06,0,0,1-3.26-4c.77-3.38,1.39-6.79,2.1-10.3a8,8,0,0,0-.77-.33,5.63,5.63,0,0,1-3.66-3.89c-.53-1.69-.88-3.44-1.3-5.16-1.17-4.77-2.37-9.54-3.5-14.32-1.25-5.32-2.5-10.64-3.62-16-.72-3.44-1.2-6.92-1.8-10.38s-1.15-6.69-1.73-10q-1-5.73-2-11.46c-.07-.39-.19-.77-.32-1.33-.12,1.28-.27,2.37-.3,3.46-.17,5.49-.41,11-.4,16.46,0,3,.42,6.05.66,9.07.14,1.85.27,3.69.43,5.54.23,2.61.48,5.22.73,7.83.21,2.14.42,4.27.65,6.4.21,1.95.47,3.89.69,5.84.17,1.54.41,3.08.48,4.63.12,2.74.11,5.49.2,8.23a6.25,6.25,0,0,1-2.08,4.84c-.18.18-.35.38-.57.61.06.27.11.56.2.84.86,2.86,1.76,5.71,2.56,8.6a7,7,0,0,1,.09,2.29,2.42,2.42,0,0,1-1.94,2.3,41.24,41.24,0,0,1-4.13.8,44.26,44.26,0,0,1-9.62.6,6.73,6.73,0,0,1-1.84-.35c-2-.71-2.86-2.06-2.68-4.42,0-.51.11-1,.15-1.54.19-2.32.37-4.65.55-7,0-.26,0-.52,0-.83-.42-.32-.87-.64-1.3-1-1.51-1.24-1.78-3-2-4.79-.26-2.65-.5-5.3-.78-8-.33-3.2-.65-6.4-1-9.59-.25-2.05-.57-4.09-.9-6.13-.51-3.21-1-6.42-1.56-9.63-.6-3.68-1.22-7.36-1.78-11-.41-2.74-.75-5.49-1.12-8.24-.27-2-.53-4-.82-6-.39-2.7-.75-5.42-1.22-8.11-.82-4.69-1.73-9.37-2.59-14.05q-1-5.56-2-11.12A145,145,0,0,0,45,383.93c-1.73-4.72-3.71-9.36-5.56-14a156.84,156.84,0,0,1-7-22.31c-.78-3.39-1.67-6.75-2.42-10.14-1.14-5.2-2.15-10.42-2.86-15.7-.41-3-1-6-1.5-9.07-.43-2.74-.78-5.48-1.14-8.23s-.67-5.21-.95-7.81c-.2-1.84-.39-3.69-.45-5.54-.1-2.77-.12-5.56-.12-8.34a44,44,0,0,1,1.53-11.18c.78-3,1.69-5.89,2.59-9a23.39,23.39,0,0,1-2-10.71A17.51,17.51,0,0,1,27,244.51a2.1,2.1,0,0,0,.13-1.7,17.92,17.92,0,0,1,4.36-18.17,16.12,16.12,0,0,0,2.61-3.43,23.17,23.17,0,0,1,10.2-9.61,112.58,112.58,0,0,1,11.48-4.46,25.23,25.23,0,0,1,6.86-1.73,36.72,36.72,0,0,1,5.55,0,26.13,26.13,0,0,1,9.7,3A18.88,18.88,0,0,1,86.81,217c.09.21.19.41.29.6a3.62,3.62,0,0,0,.22.29l3.66-.3c1.84-.17,3.67-.36,5.52-.51a95.22,95.22,0,0,1,10.55-.39c3.25.1,6.53,0,9.77.25,4.08.36,8.13,1,12.19,1.59,3.66.5,7.32,1.07,11,1.53a65.13,65.13,0,0,0,7.62.67,40.76,40.76,0,0,0,12-1.33,19.87,19.87,0,0,0,6.52-3.5,2.91,2.91,0,0,0,.9-1.36c1-3.12,2.17-6.22,3-9.41.82-3.37,1.37-6.81,1.87-10.24.53-3.62.88-7.27,1.29-10.9.35-3.2.65-6.41,1-9.6.39-3.42.83-6.83,1.23-10.24.34-2.87.66-5.73,1-8.6.39-3.45.82-6.9,1.18-10.36.17-1.62.22-3.25.29-4.88.15-3.11.28-6.22.41-9.33.12-2.63.18-5.27.33-7.89q.36-6.27.82-12.53a32,32,0,0,1,3.09-11.4c.27-.56.49-1.14.76-1.78-.52-.45-1-.84-1.46-1.26A26.3,26.3,0,0,1,175,86,47.54,47.54,0,0,1,172.77,79a28.18,28.18,0,0,1-.35-9.39c.16-1.36.18-2.74.33-4.1a40.32,40.32,0,0,1,2.89-11.91,10.43,10.43,0,0,1,4.59-5.13,5.28,5.28,0,0,1,5.41.24,8.3,8.3,0,0,1,4.15,7c.23,3.14.15,6.3.15,9.45a38.88,38.88,0,0,0,2.81,14.62,27.41,27.41,0,0,0,2.15,3.65c.55-.14.94-.21,1.32-.34a25.74,25.74,0,0,1,10.72-1.39c2.42.21,4.82.67,7.23,1.06a22,22,0,0,1,2.38.52,1.6,1.6,0,0,0,1.42-.43,20,20,0,0,0,4.93-5.68,71.84,71.84,0,0,0,6.48-14,41.76,41.76,0,0,1,4.69-9.67,9.61,9.61,0,0,1,4.86-3.9,6.4,6.4,0,0,1,6,1,12.38,12.38,0,0,1,5.3,9.22A21.43,21.43,0,0,1,249,69.13a77.17,77.17,0,0,1-9.42,19.31,44.09,44.09,0,0,1-6,7.28c-.54.5-1.11,1-1.56,1.37.5,2.66,1.05,5.19,1.44,7.73a47.63,47.63,0,0,1,.69,6.62q.09,12,0,23.93c-.07,5.57-.29,11.13-.45,16.69-.07,2.49-.25,5-.21,7.45.07,3.85.19,7.7.46,11.54s.77,7.88,1.18,11.81c.33,3.2.62,6.4,1,9.59.72,5.91,1.9,11.74,3.17,17.56s2.46,11.86,3.51,17.82c.77,4.32,1.26,8.7,1.87,13q.39,2.69.77,5.37a1.31,1.31,0,0,1,0,.34c-.22,2.89.61,5.64,1.09,8.44.64,3.75,1.31,7.49,1.63,11.3s.76,7.42,1.11,11.14c.18,1.95.27,3.91.43,5.87.13,1.62.31,3.24.47,4.85a6.87,6.87,0,0,1,.08.78c0,4.71.18,9.42.05,14.13a63.55,63.55,0,0,1-1.36,11.56c-.84,4-1.47,8-2.25,12-.52,2.65-1,5.29-1.7,7.91-2,8-3.93,16-6.07,24-2.19,8.13-4.41,16.27-7.38,24.17-1.5,4-3.1,8-4.52,12.05-.78,2.23-1.35,4.54-1.91,6.83q-1.22,4.95-2.27,9.94c-.52,2.49-.86,5-1.36,7.52-.77,3.88-1.61,7.74-2.44,11.6-.73,3.36-1.56,6.69-2.2,10.07-.47,2.5-.71,5.05-1.07,7.57-.33,2.34-.71,4.68-1.05,7q-.45,3.23-.87,6.47c-.32,2.46-.64,4.92-.93,7.37-.13,1.07-.21,2.14-.3,3.21-.28,3.35-.52,6.72-.85,10.07A138,138,0,0,1,209.83,497c-.42,2-.82,4.05-1.26,6.07a7.36,7.36,0,0,1-.49,1.36,3,3,0,0,1-2.33,1.85c-.32.06-.63.15-1,.25.42,1.69.87,3.28,1.2,4.89a42.19,42.19,0,0,1,.69,4.6c.21,2.33-1.05,3.67-3.41,3.57-3.29-.14-6.59-.19-9.89-.28a26,26,0,0,1-3.19-.08,2.27,2.27,0,0,1-2-3c.87-3.47,1.82-6.93,2.73-10.39.05-.21.08-.43.1-.57a14.38,14.38,0,0,1-2.18-1.34c-1.82-1.6-2.23-3.76-2.12-6.06,0-1,.19-2.07.22-3.1,0-1.6,0-3.2.07-4.79.08-2.52.13-5.05.33-7.56a256.69,256.69,0,0,0,.64-27c-.33-12.25.07-24.49.09-36.73a88.61,88.61,0,0,0-.47-9.5c-.23-2.13-.28-4.28-.45-6.42-.22-2.66-.48-5.31-.73-8-.13-1.36-.3-2.72-.46-4.07a7.79,7.79,0,0,0-.19-.77l-2.7.45a2.28,2.28,0,0,0-.18.54c-.11,1.92-.24,3.85-.31,5.77-.15,4.08-.27,8.16-.42,12.24-.08,2.26-.19,4.51-.29,6.77-.21,4.41-.41,8.82-.63,13.22-.17,3.44-.34,6.88-.56,10.32-.25,4-.57,8-.82,12-.19,2.92-.36,5.84-.47,8.77s-.14,6-.2,9c0,1,0,2-.05,3-.11,3.6-.12,7.2-.37,10.79-.38,5.48-.6,11-.56,16.45a6.89,6.89,0,0,1-.92,3.61,5.18,5.18,0,0,1-4,2.53c.1.42.18.76.27,1.11.61,2.47,1.24,4.94,1.82,7.42a5.28,5.28,0,0,1,.11,1.43,2.42,2.42,0,0,1-2.19,2.39,13,13,0,0,1-1.54.15c-2.29.12-4.58.27-6.87.33-2,0-4,0-6,0a2.65,2.65,0,0,1-2.51-2.88,22.87,22.87,0,0,1,.6-4.27c.45-1.94,1.06-3.84,1.6-5.77.08-.28.12-.57.19-.89a3.36,3.36,0,0,0-.4-.22,5.23,5.23,0,0,1-3.62-4.86c-.23-2.47-.4-4.94-.59-7.41-.24-3.21-.49-6.41-.72-9.62-.16-2.33-.23-4.66-.43-7-.26-2.94-.61-5.88-.91-8.82-.23-2.2-.49-4.41-.65-6.62-.27-3.69-.49-7.38-.72-11.07-.08-1.29-.13-2.59-.18-3.88-.13-3.37-.23-6.75-.38-10.12s-.28-6.81-.57-10.2c-.35-4.08-.84-8.16-1.32-12.23-.45-3.81-1-7.62-1.47-11.43-.16-1.21-.42-2.41-.63-3.61-.29-1.59-1.46-2.52-2.64-3.42A16.7,16.7,0,0,0,137,391a88.82,88.82,0,0,1-13.27-4.37A4,4,0,0,0,123.14,386.48Zm-14.68-21.34,0,0h0a7.71,7.71,0,0,0,2.58,1.73,1.21,1.21,0,0,0-.17-.6C110.32,365.36,109.32,365.41,108.46,365.14ZM66.31,242.29l-2.09.89c.17.44.28.75.5,1.32l1.57-2.22.07,0Zm22.13,48c-.69.52-1.43,1-2.07,1.56a12.64,12.64,0,0,1-3.58,2.57,1.42,1.42,0,0,0-.54.36,8,8,0,0,0-1.08,4.44c.3-.57.56-1.05.83-1.53a13.56,13.56,0,0,1,4.5-5.08,9.67,9.67,0,0,0,1.93-2.33l.08-.17Zm10.14-45.79a7.38,7.38,0,0,0,.84-.22,75.68,75.68,0,0,1,9.57-3.42,8,8,0,0,0,.82-.3c-2.21.14-4.39.45-6.58.59a3.73,3.73,0,0,0-2.58,1.29c-.54.55-1.17,1-1.74,1.54a2.33,2.33,0,0,0-.32.54l-.31,0,0,.12Zm77.91,24.35a2.7,2.7,0,0,0,.25-.34c1.82-4.56,3.65-9.12,5.45-13.69a17.63,17.63,0,0,0,.53-2,23.35,23.35,0,0,0-1.85,3.29,35.58,35.58,0,0,0-3.35,8.42c-.29,1.44-.68,2.86-1,4.3l-.18.45.1,0Zm-23.3-25a32.35,32.35,0,0,0-5.46,1.74c-1,2.36-1.91,4.52-2.82,6.7l1.31.89c.26-.32.44-.55.61-.79l3.85-5.16,2.5-3.39,0-.08ZM215.83,360l.66.64c.7-3,1.34-5.85,2-8.63l-2.1-.45c-.16-.18-.41-.33-.46-.53a1.51,1.51,0,0,0-1.48-1.26c-.73-.06-1.22.36-1.59,1.29a2.85,2.85,0,0,0-.12.31,34.57,34.57,0,0,0-.78,9.24,1.35,1.35,0,0,0,1.43,1.39,1.73,1.73,0,0,0,1.72-1A9.21,9.21,0,0,1,215.83,360ZM169,441c0,1.26-.08,2.52,0,3.78a10.4,10.4,0,0,0,.4,2.27,2.13,2.13,0,0,0,2,1.53,2.21,2.21,0,0,0,1.83-1.41c.19-.51.33-1,.47-1.58a17.93,17.93,0,0,0,.5-5.6,8.12,8.12,0,0,0-.41-2c-.37-1.26-1.49-2-2.3-2.89a1.19,1.19,0,0,0-1.82.29,3.76,3.76,0,0,0-.52,1.65C169,438.31,169,439.65,169,441Zm48.25-210.64a13.24,13.24,0,0,0-.81-4.7,6.05,6.05,0,0,1-.64-2.44,2.26,2.26,0,0,0-1.85-2c-1-.09-1.73.43-1.92,1.69a22.13,22.13,0,0,0-.05,3.05,26.2,26.2,0,0,0,.82,6.77,4.69,4.69,0,0,0,.66,1.37,1.76,1.76,0,0,0,3.11-.38C216.87,232.57,217.05,231.45,217.27,230.34ZM46.4,346.74A2.46,2.46,0,0,0,48.56,344c-.13-1.88-.16-3.77-.44-5.62A24.9,24.9,0,0,0,47,334.49a1.33,1.33,0,0,0-1.3-.88,2.07,2.07,0,0,0-2.37,2.05,38.91,38.91,0,0,0,.18,4.32c.18,1.53.5,3,.81,4.55A2.6,2.6,0,0,0,46.4,346.74Zm-9-62.15-.14,0a17,17,0,0,0,0-1.89,6.28,6.28,0,0,0-.4-1.7,1.8,1.8,0,0,0-1.72-1.18,3.28,3.28,0,0,0-2.94,2.45,32.93,32.93,0,0,0-.28,5,12,12,0,0,0,.71,3.43,1.91,1.91,0,0,0,3.15.81,3.74,3.74,0,0,0,.92-1.84C37,288,37.18,286.26,37.4,284.59ZM229.19,237a2.26,2.26,0,0,0-2.06,1.72,6,6,0,0,0-.34,1.72c0,1.06.07,2.13.15,3.19a15.24,15.24,0,0,0,.78,4.33,2.27,2.27,0,0,0,2,1.67,2,2,0,0,0,1.87-1.63,12.08,12.08,0,0,0,.45-3,24.44,24.44,0,0,0-.41-4.6C231.31,238.94,231,237.37,229.19,237Zm-20.55-58h-.11l.24,1.4a2.75,2.75,0,0,0,2.28,2.27,2.32,2.32,0,0,0,2.43-.94,4.23,4.23,0,0,0,.85-1.52c.2-.62.16-1.31.34-1.94.52-1.84-.29-3.39-1-5a1.71,1.71,0,0,0-.74-.63,2.7,2.7,0,0,0-4.05,2.23C208.71,176.29,208.71,177.66,208.64,179Zm5.7,203.73c-1.54.16-1.91,1.19-2,2.28-.24,2.38-.44,4.77-.55,7.15-.08,1.73.36,2.22,2.06,2.76a2.28,2.28,0,0,0,2-1.58,12.74,12.74,0,0,0,.65-1.75c.35-1.43.69-2.86.91-4.3.13-.86.34-1.87-.47-2.5s-1.33-1.2-2-1.8A2,2,0,0,0,214.34,382.75Zm-158-6.66c-.28-1.67-.5-3.64-1-5.56S53.9,368.2,52.11,369a2.28,2.28,0,0,0-1.63,2.44,38.75,38.75,0,0,0,.66,4.68,6.85,6.85,0,0,0,1.44,3.42,1.85,1.85,0,0,0,3.32-.81C56.1,378,56.14,377.18,56.31,376.09Zm166.88-26.82h-.25a16.25,16.25,0,0,0-1.06,2.13,15.92,15.92,0,0,0-.51,2.58,21.53,21.53,0,0,0-.26,2.52,1.87,1.87,0,0,0,1,1.8,1.63,1.63,0,0,0,1.94-.31,4.14,4.14,0,0,0,1.06-1.38,22.44,22.44,0,0,0,2.43-7.51,3.3,3.3,0,0,0-.59-2,1.73,1.73,0,0,0-2.69-.29A2.57,2.57,0,0,0,223.19,349.27Zm-7.41-58.65c.1,1.14.14,2.32.31,3.48a2.06,2.06,0,0,0,1.62,1.76,1.91,1.91,0,0,0,2.21-1.26,10,10,0,0,0,.62-1.77,11.5,11.5,0,0,0,.39-1.94c.16-1.68.57-3.34.16-5.05a1.77,1.77,0,0,0-2.08-1.51,9.62,9.62,0,0,0-2.7,2.31,2.07,2.07,0,0,0-.16.52C216,288.3,215.91,289.43,215.78,290.62Zm-9.94,195.24-.16,0a14.69,14.69,0,0,0,0-2,7.14,7.14,0,0,0-.55-2.11,1.78,1.78,0,0,0-3.09-.39,3.59,3.59,0,0,0-.75,1.69c-.13,1.05-.26,2.08-.46,3.13a9.91,9.91,0,0,0,.7,5.19,1.63,1.63,0,0,0,1.53,1.09,1.76,1.76,0,0,0,2.08-1.68C205.46,489.14,205.62,487.49,205.84,485.86ZM40.22,234.58c-.63.35-1.41.75-2.15,1.22A18.34,18.34,0,0,0,36.5,237a9.34,9.34,0,0,0-3,4.3,2.11,2.11,0,0,0,3.2,2.29c2.38-1.53,4.69-3.2,5.27-6.31C42.3,235.63,42.08,235.15,40.22,234.58ZM169,423.48a6.63,6.63,0,0,0,.58,3,1.74,1.74,0,0,0,2.84.52,3.4,3.4,0,0,0,.83-1.39,19.08,19.08,0,0,0,.65-3,38.8,38.8,0,0,0,.32-4.18,2.05,2.05,0,0,0-1.69-2.15c-1.74-.26-2.7.39-3,2.15S169.15,421.8,169,423.48ZM58.35,394.67a9,9,0,0,0-.39-.86,1.49,1.49,0,0,0-1.78-.77,1.36,1.36,0,0,0-1.1,1.47c.1,1.72.25,3.44.49,5.15a17.78,17.78,0,0,0,.78,3.2A1.92,1.92,0,0,0,58,404.41a2.11,2.11,0,0,0,2.28-2.06,19.66,19.66,0,0,0,0-4.6C60.19,396.48,59.93,395.15,58.35,394.67ZM227.5,333.39h.12c0,.45-.05.9,0,1.33a2,2,0,0,0,1.38,1.72,1.43,1.43,0,0,0,1.78-.54,10.78,10.78,0,0,0,1.47-2.68,34,34,0,0,0,1-4.28,2.3,2.3,0,0,0-.74-2.21c-.3-.27-.59-.55-.86-.84a1.62,1.62,0,0,0-2.62.31,4.15,4.15,0,0,0-.51,1.21C228.13,329.4,227.82,331.4,227.5,333.39ZM39.78,315.23h.08c-.09-1.33-.11-2.66-.29-4a11.91,11.91,0,0,0-.78-2.74,1.91,1.91,0,0,0-3.13-.58,3.38,3.38,0,0,0-.7,2.8c.07,1.24.2,2.49.38,3.72a20.33,20.33,0,0,0,.67,3A2,2,0,0,0,37.56,319a1.84,1.84,0,0,0,2.19-1.91C39.8,316.49,39.77,315.86,39.78,315.23ZM164.9,452.62a1.69,1.69,0,0,1-.2-.25,1.37,1.37,0,0,0-1.49-.74,1.4,1.4,0,0,0-1.23,1.12,4.46,4.46,0,0,0-.22,1.19c0,1.55,0,3.1.19,4.64a8.62,8.62,0,0,0,.64,2.44,1.87,1.87,0,0,0,2.55,1,2.31,2.31,0,0,0,1.39-2.11,48.56,48.56,0,0,0,.3-5A2.19,2.19,0,0,0,164.9,452.62ZM62.29,380.42h.12c0,.59,0,1.19,0,1.78a14.78,14.78,0,0,0,.16,1.75,21.72,21.72,0,0,0,.46,2.27A2.25,2.25,0,0,0,65.36,388,2.15,2.15,0,0,0,67.19,386a22.72,22.72,0,0,0,.26-3.08c0-1.56-.2-3.1-1.57-4.19a1.79,1.79,0,0,1-.37-.65,1.44,1.44,0,0,0-1.56-1,1.29,1.29,0,0,0-1.34,1.09C62.45,378.89,62.39,379.66,62.29,380.42Zm146.88-68.86c0-1.47,0-2.61-1.25-3.25-.15-.08-.21-.3-.32-.45a1.64,1.64,0,0,0-3,.35,5.28,5.28,0,0,0-.33,1.16,18,18,0,0,0-.44,2.71,22.47,22.47,0,0,0,.16,3.85c.16,1.18.85,1.59,2,1.63a1.86,1.86,0,0,0,1.79-1.23A12.24,12.24,0,0,0,209.17,311.56Zm7.22-52h.11a13.25,13.25,0,0,0,0,1.89,14.45,14.45,0,0,0,.59,3,1.7,1.7,0,0,0,2.59,1,2.87,2.87,0,0,0,1.24-1.64,19.54,19.54,0,0,0,.53-5.05,1.85,1.85,0,0,0-.74-1.63,1.5,1.5,0,0,1-.65-.95,1.62,1.62,0,0,0-1.66-1.35,1.65,1.65,0,0,0-1.6,1.43C216.59,257.39,216.52,258.49,216.39,259.59ZM42,226.25a11.9,11.9,0,0,0,1.48-.39,14.81,14.81,0,0,0,5.76-4.05,1.6,1.6,0,0,0,.36-.88c.14-1.53-1.1-2.42-2.78-2a13.52,13.52,0,0,0-6.33,3.93,2,2,0,0,0-.32,2.27A1.91,1.91,0,0,0,42,226.25Zm17-9c.88-.08,1.51-.08,2.13-.2,1.51-.28,3-.59,4.52-.93a2.61,2.61,0,0,0,1-.52c.84-.66.94-2.18.08-2.59a8,8,0,0,0-3.24-1,18,18,0,0,0-4,.67,4.18,4.18,0,0,0-2.42,1.23,1.8,1.8,0,0,0,.52,2.88A8.42,8.42,0,0,0,59.05,217.23ZM199.53,343.56l.12,0a13.53,13.53,0,0,0,0,1.56,2.61,2.61,0,0,0,1.67,2.15,2.14,2.14,0,0,0,2.27-1.25,35.29,35.29,0,0,0,1.41-3.93,3.71,3.71,0,0,0,.17-1.51,2.53,2.53,0,0,0-2.38-2.45c-1.54-.27-2.29,0-2.62,1.5C199.87,340.94,199.73,342.26,199.53,343.56Zm7.11-69.19h.1a10.16,10.16,0,0,0,0,1.56,19.06,19.06,0,0,0,.57,2.9,1.93,1.93,0,0,0,1.75,1.32,1.84,1.84,0,0,0,1.81-1,2.55,2.55,0,0,0,.48-1.11c.14-1.61.28-3.23.26-4.84a2,2,0,0,0-1-1.73,4,4,0,0,1-.67-.57,1.61,1.61,0,0,0-2.87.76A27,27,0,0,0,206.64,274.37ZM219,192.78l.1,0a9.84,9.84,0,0,0,0,1.33,2.8,2.8,0,0,0,1.8,2.47,2.68,2.68,0,0,0,2.87-.61,4.38,4.38,0,0,0,1.24-2.42,4.16,4.16,0,0,0-.94-4c-1.77-1.81-3.91-1-4.68,1A11.21,11.21,0,0,0,219,192.78ZM197.52,381.37c.1.71.15,1.49.32,2.23a1.46,1.46,0,0,0,1.54,1.17c1.17.05,1.8-.19,2.18-1.3a30.62,30.62,0,0,0,1.36-5.2c.28-1.81-.9-2.89-2.73-2.87a2,2,0,0,0-2.05,1.64C197.89,378.45,197.73,379.88,197.52,381.37Zm-85.63,94.76c1.56-.57,1.71-.74,1.7-2.3a12.4,12.4,0,0,0-.21-2.19c-.31-1.55-.63-3.1-1-4.62a2.23,2.23,0,0,0-2.59-1.58c-.76.15-1.23.91-1.21,2.1a8.53,8.53,0,0,0,.2,1.75c.41,1.71.84,3.43,1.31,5.12A2.27,2.27,0,0,0,111.89,476.13Zm59.42-6a9.9,9.9,0,0,1-1.55.92,2.16,2.16,0,0,0-1.36,2.29c0,.7-.1,1.4-.1,2.1a26.18,26.18,0,0,0,0,3.07A1.67,1.67,0,0,0,170,480a1.94,1.94,0,0,0,2.09-1.6,18.69,18.69,0,0,0,1-5.74C173.09,471.1,173,470.87,171.31,470.14Zm59.76-189.58c.09,1,.11,2.23.32,3.38a1.68,1.68,0,0,0,2.49,1.18,2.26,2.26,0,0,0,1.25-1.95c.22-1.23.38-2.48.48-3.72a4.84,4.84,0,0,0-1.8-4.09,1.26,1.26,0,0,0-.7-.25,1.62,1.62,0,0,0-1.67,1.56C231.3,277.92,231.2,279.17,231.07,280.56Zm-20.63-74.27c.11.74.2,1.77.43,2.76a1.92,1.92,0,0,0,1.86,1.59,2,2,0,0,0,1.93-1.69c.22-1,.28-2,.53-3a3.87,3.87,0,0,0-1.05-3.83,2,2,0,0,0-2.13-.73,1.83,1.83,0,0,0-1.25,1.68C210.59,204,210.56,205,210.44,206.29Zm-34.7,190.15a26.42,26.42,0,0,0-.56-2.87,2,2,0,0,0-1.67-1.55,2,2,0,0,0-2.34,2.06c0,1.48-.07,3,0,4.43a5.92,5.92,0,0,0,.28,1.62,2,2,0,0,0,2.07,1.46,1.9,1.9,0,0,0,1.58-1.52C175.37,398.91,175.51,397.7,175.74,396.44Zm29.68,17-.19,0c0-.44,0-.89,0-1.33,0-.14-.12-.27-.15-.41a11.62,11.62,0,0,1-.25-1.39c0-.91-.36-1.47-1-1.62a1.66,1.66,0,0,0-2.06,1,19.94,19.94,0,0,0-1,7.23,2.63,2.63,0,0,0,.15.53,1.52,1.52,0,0,0,2.32,1,2.54,2.54,0,0,0,1.18-1.22C204.84,416,205.1,414.73,205.42,413.45Zm26.52-98.74a2.26,2.26,0,0,0,2.1-2.09,37.66,37.66,0,0,0,.56-4.36,2.92,2.92,0,0,0-2.39-2.87,1.63,1.63,0,0,0-2,1.67,20.62,20.62,0,0,0-.16,5.27A2.54,2.54,0,0,0,231.94,314.71ZM109.66,438.93a3,3,0,0,0-2.35,3.45,23.27,23.27,0,0,0,.2,2.64,12.63,12.63,0,0,0,.66,2.66,1.55,1.55,0,0,0,2.57.55,2.69,2.69,0,0,0,.94-2.26c0-1.55-.09-3.09-.14-4.64C111.5,440,111,439.16,109.66,438.93ZM204.41,437h.1c0,.67,0,1.33,0,2a2.23,2.23,0,0,0,1.67,2.2,2.46,2.46,0,0,0,2.26-1.66,3.25,3.25,0,0,0,.08-.43c.3-1.47.67-2.93.89-4.41a2,2,0,0,0-1.87-2.39c-.29,0-.59,0-.88,0a1.73,1.73,0,0,0-1.86,1.53C204.61,434.88,204.53,435.94,204.41,437ZM48.09,296.08H48a8.45,8.45,0,0,0,0-1.33c-.35-2.29-.82-2.7-2.74-2.58a1.7,1.7,0,0,0-1.63,1.28,11.63,11.63,0,0,0,0,5.47c.34,1.26,1,1.88,2,1.93a2.38,2.38,0,0,0,2-1.81.83.83,0,0,0,.06-.21C47.87,297.9,48,297,48.09,296.08ZM226.4,216.2a8.2,8.2,0,0,0-.62-3.67,2,2,0,0,0-2.38-1.29,2.12,2.12,0,0,0-1.63,1.73,8.73,8.73,0,0,0,1,5.66,2,2,0,0,0,2,1.06,2.2,2.2,0,0,0,1.55-1.83C226.41,217.35,226.39,216.83,226.4,216.2ZM65,438.43h-.09c.08,1.21.13,2.42.26,3.62a1.62,1.62,0,0,0,1.65,1.45,2,2,0,0,0,1.91-1.92c0-.44,0-.88.11-1.32a12.4,12.4,0,0,0-.35-4.89,2,2,0,0,0-1.67-1.44,1.88,1.88,0,0,0-1.67,1.52,3.65,3.65,0,0,0-.12.87C65,437,65,437.73,65,438.43ZM217.2,321.79h.08c0,.37,0,.74,0,1.11a1.81,1.81,0,0,0,3.25,1.22,7.79,7.79,0,0,0,1.36-5.43c-.06-.59-.67-1.1-1-1.67a1.63,1.63,0,0,0-1.85-.88,1.51,1.51,0,0,0-1.23,1.39C217.56,319,217.4,320.37,217.2,321.79ZM57.07,349l.12,0a3.37,3.37,0,0,0,0,.55,25.28,25.28,0,0,0,.54,3.36,1.75,1.75,0,0,0,1.77,1.4A1.82,1.82,0,0,0,61.35,353a5.19,5.19,0,0,0,.39-1.92,6,6,0,0,0-.52-3,5.5,5.5,0,0,1-.49-1.2,1.73,1.73,0,0,0-1.49-1.28,1.5,1.5,0,0,0-1.69,1.13A20.21,20.21,0,0,0,57.07,349Zm52.22,68.81a1.78,1.78,0,0,0-1.75,1.77c-.16,1.53-.52,3-.64,4.57a5.12,5.12,0,0,0,.41,2.13,1.38,1.38,0,0,0,1.52.87,2.19,2.19,0,0,0,1.78-2.1c.13-1.61.24-3.23.29-4.85C111,418.72,110.66,418.33,109.29,417.77Zm54.85-6.51a2.32,2.32,0,0,0,1.87-1.5,9.94,9.94,0,0,0,.51-2.36,5.47,5.47,0,0,0-.35-3.14,1.61,1.61,0,0,0-2.4-.72,4.13,4.13,0,0,0-1.67,3.21c0,.59,0,1.18,0,1.77A2.51,2.51,0,0,0,164.14,411.26Zm-90.4,76.11a3.87,3.87,0,0,0,0-.45c-.36-1.9-.71-3.81-1.08-5.71a1,1,0,0,0-.24-.37,1.54,1.54,0,0,0-1.63-.65,1.71,1.71,0,0,0-1.21,1.68,24.74,24.74,0,0,0,.79,6,1.55,1.55,0,0,0,1.4,1.36,1.76,1.76,0,0,0,1.75-1.13A2.43,2.43,0,0,0,73.74,487.37Zm-3.26-23h.08c-.09-1-.15-2.05-.29-3.07a1.79,1.79,0,0,0-3.51-.13,16.84,16.84,0,0,0,.3,5.48,1.63,1.63,0,0,0,3.13.33,2.17,2.17,0,0,0,.26-.94C70.49,465.48,70.47,464.92,70.48,464.37Zm-10.63-240a7.15,7.15,0,0,0-4.36,1.92,1.74,1.74,0,0,0,.74,3c1.24.47,2.31-.11,3.41-.48A3.14,3.14,0,0,0,61.52,227C62.22,225.5,61.55,224.38,59.85,224.37ZM99.52,459.13l-.21.05c.33,1.27.59,2.57,1,3.81a1.7,1.7,0,0,0,1.89,1.22,2,2,0,0,0,1.69-1.79,5.9,5.9,0,0,0-1.67-4.95,1.44,1.44,0,0,0-1.48-.55,1.7,1.7,0,0,0-1.22,1.32A3.76,3.76,0,0,0,99.52,459.13ZM103,436.75a6.06,6.06,0,0,0-.87-3.31c-.55-.74-1.18-1.11-1.86-.85a2.06,2.06,0,0,0-1.2,1.61,15.42,15.42,0,0,0,0,3.84,2.92,2.92,0,0,0,.39,1.14,1.53,1.53,0,0,0,1.58,1,1.46,1.46,0,0,0,1.4-1.07A22.74,22.74,0,0,0,103,436.75Zm6.82,48.06a1.66,1.66,0,0,0-1.73,2c.26,1.37.62,2.72,1,4.06a1.46,1.46,0,0,0,1.58,1.12,1.92,1.92,0,0,0,1.73-2.45c-.38-1.36-1-2.68-1.46-4A1,1,0,0,0,109.86,484.81Zm-33-12.06c1.67-.46,2.37-1.54,2-3.16-.2-.76-.75-1.44-.6-2.31,0-.11-.12-.26-.21-.37a1.54,1.54,0,0,0-2.76.29c-.54,1-.17,2-.13,3C75.13,471.41,75.46,472.43,76.83,472.75ZM78,448.52a8.84,8.84,0,0,0,0-.89,3,3,0,0,0-1.26-2.25,1.39,1.39,0,0,0-2.09.76,5,5,0,0,0,.2,4.57,1.32,1.32,0,0,0,1.71.62A2.06,2.06,0,0,0,78,449.52C78,449.19,78,448.85,78,448.52Zm3.23-93.88.27.13c.31-.48.64-.94.93-1.43a34.83,34.83,0,0,1,2.27-3.65,2.67,2.67,0,0,0,.6-2.56l-2.07-.38C82.56,349.47,81.91,352.05,81.25,354.64Zm116.14,52.67h.18c0-.06.09-.12.1-.18.17-1.8.37-3.59.51-5.39a4.46,4.46,0,0,0-.12-1.83,14.3,14.3,0,0,0-1.37-2.25C196.94,401,197.16,404.16,197.39,407.31Zm-27.83,43.91a1.81,1.81,0,0,0-.65,1.68c.05,2.84.08,5.69.11,8.54,0,1.22,0,2.44,0,3.66,0,.23,0,.45.06.68l.29,0ZM154.68,310.11l2,1a13,13,0,0,0-2-4.81C154.71,307.59,154.69,308.8,154.68,310.11Zm37.18-105.25c.59-1.6,1.07-5.1.79-5.79-.61,1.85-1.19,3.62-1.8,5.5ZM95.74,356.09l.11.24,3-.73c0-.68,0-1.28,0-2.15C97.47,354.14,96.79,355.33,95.74,356.09Zm63.43-5.47c.12-.94.21-1.67.31-2.4s.17-1.38.26-2.07C158.41,348.26,158.35,348.71,159.17,350.62Zm16.61,19.67,2.26-.88L176,368C175.93,368.77,175.87,369.41,175.78,370.29Zm47.33-131.72-.23,0c-.24.95-.47,1.89-.75,3l1.43-.82C223.4,240,223.26,239.27,223.11,238.57ZM34.38,296.88c-.28.13-.51.17-.52.24a11,11,0,0,0,.46,4.23C34.34,299.92,34.36,298.5,34.38,296.88Zm80.41,209c0,.36.09.59.12.83.43-.07.78-.15,1.14-.18s.69,0,1,0l0-.27C116.51,505.6,115.69,506,114.79,505.83Zm83.93-16.56-.93-1C197.41,489.34,197.44,489.37,198.72,489.27Zm-136-134c-1,.57-.13,1.26-.16,1.9C62.64,356.57,62.69,355.94,62.74,355.31Zm70.17,22.37.12-.31-1.77-.61-.09.24Zm-23-86.45.15.15,1-1.08-.15-.15Zm-27.2,219.4c-.23.45-.56.83.29,1.07C82.92,511.28,82.84,511,82.74,510.63Zm36,4c.64,0,.64,0,.63-.54Zm41.09-169.19,0,.09,0-.09Z"/><path class="b" d="M169,441c0-1.33,0-2.67.08-4a3.76,3.76,0,0,1,.52-1.65,1.19,1.19,0,0,1,1.82-.29c.81.93,1.93,1.63,2.3,2.89a8.12,8.12,0,0,1,.41,2,17.93,17.93,0,0,1-.5,5.6c-.14.53-.28,1.07-.47,1.58a2.21,2.21,0,0,1-1.83,1.41,2.13,2.13,0,0,1-2-1.53,10.4,10.4,0,0,1-.4-2.27c-.05-1.26,0-2.52,0-3.78Z"/><path class="b" d="M217.27,230.34c-.22,1.11-.4,2.23-.68,3.32a1.76,1.76,0,0,1-3.11.38,4.69,4.69,0,0,1-.66-1.37,26.2,26.2,0,0,1-.82-6.77,22.13,22.13,0,0,1,.05-3.05c.19-1.26.89-1.78,1.92-1.69a2.26,2.26,0,0,1,1.85,2,6.05,6.05,0,0,0,.64,2.44A13.24,13.24,0,0,1,217.27,230.34Z"/><path class="b" d="M46.4,346.74a2.6,2.6,0,0,1-2.1-2.21c-.31-1.51-.63-3-.81-4.55a38.91,38.91,0,0,1-.18-4.32,2.07,2.07,0,0,1,2.37-2.05,1.33,1.33,0,0,1,1.3.88,24.9,24.9,0,0,1,1.14,3.91c.28,1.85.31,3.74.44,5.62A2.46,2.46,0,0,1,46.4,346.74Z"/><path class="b" d="M37.4,284.59c-.22,1.67-.38,3.36-.69,5a3.74,3.74,0,0,1-.92,1.84,1.91,1.91,0,0,1-3.15-.81,12,12,0,0,1-.71-3.43,32.93,32.93,0,0,1,.28-5,3.28,3.28,0,0,1,2.94-2.45A1.8,1.8,0,0,1,36.87,281a6.28,6.28,0,0,1,.4,1.7,17,17,0,0,1,0,1.89Z"/><path class="b" d="M229.19,237c1.82.38,2.12,1.95,2.41,3.36A24.44,24.44,0,0,1,232,245a12.08,12.08,0,0,1-.45,3,2,2,0,0,1-1.87,1.63,2.27,2.27,0,0,1-2-1.67,15.24,15.24,0,0,1-.78-4.33c-.08-1.06-.16-2.13-.15-3.19a6,6,0,0,1,.34-1.72A2.26,2.26,0,0,1,229.19,237Z"/><path class="b" d="M208.64,179c.07-1.36.07-2.73.24-4.08a2.7,2.7,0,0,1,4.05-2.23,1.71,1.71,0,0,1,.74.63c.71,1.57,1.52,3.12,1,5-.18.63-.14,1.32-.34,1.94a4.23,4.23,0,0,1-.85,1.52,2.32,2.32,0,0,1-2.43.94,2.75,2.75,0,0,1-2.28-2.27l-.24-1.4Z"/><path class="b" d="M214.34,382.75a2,2,0,0,1,.53.26c.66.6,1.28,1.24,2,1.8s.6,1.64.47,2.5c-.22,1.44-.56,2.87-.91,4.3a12.74,12.74,0,0,1-.65,1.75,2.28,2.28,0,0,1-2,1.58c-1.7-.54-2.14-1-2.06-2.76.11-2.38.31-4.77.55-7.15C212.43,383.94,212.8,382.91,214.34,382.75Z"/><path class="b" d="M56.31,376.09c-.17,1.09-.21,1.87-.41,2.61a1.85,1.85,0,0,1-3.32.81,6.85,6.85,0,0,1-1.44-3.42,38.75,38.75,0,0,1-.66-4.68A2.28,2.28,0,0,1,52.11,369c1.79-.77,2.79-.36,3.25,1.56S56,374.42,56.31,376.09Z"/><path class="b" d="M223.19,349.27a2.57,2.57,0,0,1,1.12-2.41,1.73,1.73,0,0,1,2.69.29,3.3,3.3,0,0,1,.59,2,22.44,22.44,0,0,1-2.43,7.51A4.14,4.14,0,0,1,224.1,358a1.63,1.63,0,0,1-1.94.31,1.87,1.87,0,0,1-1-1.8,21.53,21.53,0,0,1,.26-2.52,15.92,15.92,0,0,1,.51-2.58,16.25,16.25,0,0,1,1.06-2.13Z"/><path class="b" d="M215.78,290.62c.13-1.19.24-2.32.37-3.46a2.07,2.07,0,0,1,.16-.52,9.62,9.62,0,0,1,2.7-2.31,1.77,1.77,0,0,1,2.08,1.51c.41,1.71,0,3.37-.16,5.05a11.5,11.5,0,0,1-.39,1.94,10,10,0,0,1-.62,1.77,1.91,1.91,0,0,1-2.21,1.26,2.06,2.06,0,0,1-1.62-1.76C215.92,292.94,215.88,291.76,215.78,290.62Z"/><path class="b" d="M215.83,360a9.21,9.21,0,0,0-.75,1,1.73,1.73,0,0,1-1.72,1,1.35,1.35,0,0,1-1.43-1.39,34.57,34.57,0,0,1,.78-9.24,2.85,2.85,0,0,1,.12-.31c.37-.93.86-1.35,1.59-1.29A1.51,1.51,0,0,1,215.9,351c0,.2.3.35.46.53,0,.1,0,.25,0,.32a3.29,3.29,0,0,1,.57,3.31C216.59,356.77,216.21,358.37,215.83,360Z"/><path class="b" d="M205.84,485.86c-.22,1.63-.38,3.28-.69,4.9a1.76,1.76,0,0,1-2.08,1.68,1.63,1.63,0,0,1-1.53-1.09,9.91,9.91,0,0,1-.7-5.19c.2-1.05.33-2.08.46-3.13a3.59,3.59,0,0,1,.75-1.69,1.78,1.78,0,0,1,3.09.39,7.14,7.14,0,0,1,.55,2.11,14.69,14.69,0,0,1,0,2Z"/><path class="b" d="M40.22,234.58c1.86.57,2.08,1,1.76,2.72-.58,3.11-2.89,4.78-5.27,6.31a2.11,2.11,0,0,1-3.2-2.29,9.34,9.34,0,0,1,3-4.3,18.34,18.34,0,0,1,1.57-1.22C38.81,235.33,39.59,234.93,40.22,234.58Z"/><path class="b" d="M169,423.48c.19-1.68.33-3.37.57-5s1.22-2.41,3-2.15a2.05,2.05,0,0,1,1.69,2.15,38.8,38.8,0,0,1-.32,4.18,19.08,19.08,0,0,1-.65,3,3.4,3.4,0,0,1-.83,1.39,1.74,1.74,0,0,1-2.84-.52A6.63,6.63,0,0,1,169,423.48Z"/><path class="b" d="M58.35,394.67c1.58.48,1.84,1.81,2,3.08a19.66,19.66,0,0,1,0,4.6A2.11,2.11,0,0,1,58,404.41a1.92,1.92,0,0,1-1.68-1.55,17.78,17.78,0,0,1-.78-3.2c-.24-1.71-.39-3.43-.49-5.15a1.36,1.36,0,0,1,1.1-1.47,1.49,1.49,0,0,1,1.78.77A9,9,0,0,1,58.35,394.67Z"/><path class="b" d="M227.5,333.39c.32-2,.63-4,1-6a4.15,4.15,0,0,1,.51-1.21,1.62,1.62,0,0,1,2.62-.31c.27.29.56.57.86.84a2.3,2.3,0,0,1,.74,2.21,34,34,0,0,1-1,4.28,10.78,10.78,0,0,1-1.47,2.68,1.43,1.43,0,0,1-1.78.54,2,2,0,0,1-1.38-1.72c0-.43,0-.88,0-1.33Z"/><path class="b" d="M39.78,315.23c0,.63,0,1.26,0,1.89A1.84,1.84,0,0,1,37.56,319,2,2,0,0,1,36,317.46a20.33,20.33,0,0,1-.67-3c-.18-1.23-.31-2.48-.38-3.72a3.38,3.38,0,0,1,.7-2.8,1.91,1.91,0,0,1,3.13.58,11.91,11.91,0,0,1,.78,2.74c.18,1.31.2,2.64.29,4Z"/><path class="b" d="M164.9,452.62a2.19,2.19,0,0,1,1.93,2.33,48.56,48.56,0,0,1-.3,5,2.31,2.31,0,0,1-1.39,2.11,1.87,1.87,0,0,1-2.55-1,8.62,8.62,0,0,1-.64-2.44c-.15-1.54-.17-3.09-.19-4.64a4.46,4.46,0,0,1,.22-1.19,1.4,1.4,0,0,1,1.23-1.12,1.37,1.37,0,0,1,1.49.74A1.69,1.69,0,0,0,164.9,452.62Z"/><path class="b" d="M62.29,380.42c.1-.76.16-1.53.32-2.28A1.29,1.29,0,0,1,64,377.05a1.44,1.44,0,0,1,1.56,1,1.79,1.79,0,0,0,.37.65c1.37,1.09,1.54,2.63,1.57,4.19a22.72,22.72,0,0,1-.26,3.08A2.15,2.15,0,0,1,65.36,388,2.25,2.25,0,0,1,63,386.23a21.72,21.72,0,0,1-.46-2.27,14.78,14.78,0,0,1-.16-1.75c0-.59,0-1.19,0-1.78Z"/><path class="b" d="M209.17,311.56a12.24,12.24,0,0,1-1.35,4.77,1.86,1.86,0,0,1-1.79,1.23c-1.16,0-1.85-.45-2-1.63a22.47,22.47,0,0,1-.16-3.85,18,18,0,0,1,.44-2.71,5.28,5.28,0,0,1,.33-1.16,1.64,1.64,0,0,1,3-.35c.11.15.17.37.32.45C209.16,309,209.19,310.09,209.17,311.56Z"/><path class="b" d="M216.39,259.59c.13-1.1.2-2.2.4-3.29a1.65,1.65,0,0,1,1.6-1.43,1.62,1.62,0,0,1,1.66,1.35,1.5,1.5,0,0,0,.65.95,1.85,1.85,0,0,1,.74,1.63,19.54,19.54,0,0,1-.53,5.05,2.87,2.87,0,0,1-1.24,1.64,1.7,1.7,0,0,1-2.59-1,14.45,14.45,0,0,1-.59-3,13.25,13.25,0,0,1,0-1.89Z"/><path class="b" d="M42,226.25a1.91,1.91,0,0,1-1.83-1.09,2,2,0,0,1,.32-2.27A13.52,13.52,0,0,1,46.84,219c1.68-.45,2.92.44,2.78,2a1.6,1.6,0,0,1-.36.88,14.81,14.81,0,0,1-5.76,4.05A11.9,11.9,0,0,1,42,226.25Z"/><path class="b" d="M59.05,217.23a8.42,8.42,0,0,1-1.44-.42,1.8,1.8,0,0,1-.52-2.88,4.18,4.18,0,0,1,2.42-1.23,18,18,0,0,1,4-.67,8,8,0,0,1,3.24,1c.86.41.76,1.93-.08,2.59a2.61,2.61,0,0,1-1,.52c-1.5.34-3,.65-4.52.93C60.56,217.15,59.93,217.15,59.05,217.23Z"/><path class="b" d="M199.53,343.56c.2-1.3.34-2.62.63-3.91.33-1.51,1.08-1.77,2.62-1.5a2.53,2.53,0,0,1,2.38,2.45,3.71,3.71,0,0,1-.17,1.51,35.29,35.29,0,0,1-1.41,3.93,2.14,2.14,0,0,1-2.27,1.25,2.61,2.61,0,0,1-1.67-2.15,13.53,13.53,0,0,1,0-1.56Z"/><path class="b" d="M206.64,274.37a27,27,0,0,1,.37-2.72,1.61,1.61,0,0,1,2.87-.76,4,4,0,0,0,.67.57,2,2,0,0,1,1,1.73c0,1.61-.12,3.23-.26,4.84a2.55,2.55,0,0,1-.48,1.11,1.84,1.84,0,0,1-1.81,1,1.93,1.93,0,0,1-1.75-1.32,19.06,19.06,0,0,1-.57-2.9,10.16,10.16,0,0,1,0-1.56Z"/><path class="b" d="M219,192.78a11.21,11.21,0,0,1,.38-2.27c.77-2,2.91-2.78,4.68-1a4.16,4.16,0,0,1,.94,4,4.38,4.38,0,0,1-1.24,2.42,2.68,2.68,0,0,1-2.87.61,2.8,2.8,0,0,1-1.8-2.47,9.84,9.84,0,0,1,0-1.33Z"/><path class="b" d="M197.52,381.37c.21-1.49.37-2.92.62-4.33a2,2,0,0,1,2.05-1.64c1.83,0,3,1.06,2.73,2.87a30.62,30.62,0,0,1-1.36,5.2c-.38,1.11-1,1.35-2.18,1.3a1.46,1.46,0,0,1-1.54-1.17C197.67,382.86,197.62,382.08,197.52,381.37Z"/><path class="b" d="M111.89,476.13a2.27,2.27,0,0,1-1.84-1.72c-.47-1.69-.9-3.41-1.31-5.12a8.53,8.53,0,0,1-.2-1.75c0-1.19.45-2,1.21-2.1a2.23,2.23,0,0,1,2.59,1.58c.41,1.52.73,3.07,1,4.62a12.4,12.4,0,0,1,.21,2.19C113.6,475.39,113.45,475.56,111.89,476.13Z"/><path class="b" d="M171.31,470.14c1.66.73,1.78,1,1.81,2.51a18.69,18.69,0,0,1-1,5.74A1.94,1.94,0,0,1,170,480a1.67,1.67,0,0,1-1.66-1.47,26.18,26.18,0,0,1,0-3.07c0-.7.09-1.4.1-2.1a2.16,2.16,0,0,1,1.36-2.29A9.9,9.9,0,0,0,171.31,470.14Z"/><path class="b" d="M231.07,280.56c.13-1.39.23-2.64.37-3.89a1.62,1.62,0,0,1,1.67-1.56,1.26,1.26,0,0,1,.7.25,4.84,4.84,0,0,1,1.8,4.09c-.1,1.24-.26,2.49-.48,3.72a2.26,2.26,0,0,1-1.25,1.95,1.68,1.68,0,0,1-2.49-1.18C231.18,282.79,231.16,281.6,231.07,280.56Z"/><path class="b" d="M210.44,206.29c.12-1.28.15-2.27.32-3.25a1.83,1.83,0,0,1,1.25-1.68,2,2,0,0,1,2.13.73,3.87,3.87,0,0,1,1.05,3.83c-.25,1-.31,2-.53,3a2,2,0,0,1-1.93,1.69,1.92,1.92,0,0,1-1.86-1.59C210.64,208.06,210.55,207,210.44,206.29Z"/><path class="b" d="M175.74,396.44c-.23,1.26-.37,2.47-.69,3.63a1.9,1.9,0,0,1-1.58,1.52,2,2,0,0,1-2.07-1.46,5.92,5.92,0,0,1-.28-1.62c0-1.47,0-2.95,0-4.43a2,2,0,0,1,2.34-2.06,2,2,0,0,1,1.67,1.55A26.42,26.42,0,0,1,175.74,396.44Z"/><path class="b" d="M205.42,413.45c-.32,1.28-.58,2.58-1,3.82a2.54,2.54,0,0,1-1.18,1.22,1.52,1.52,0,0,1-2.32-1,2.63,2.63,0,0,1-.15-.53,19.94,19.94,0,0,1,1-7.23,1.66,1.66,0,0,1,2.06-1c.66.15,1,.71,1,1.62a11.62,11.62,0,0,0,.25,1.39c0,.14.14.27.15.41,0,.44,0,.89,0,1.33Z"/><path class="b" d="M231.94,314.71a2.54,2.54,0,0,1-1.89-2.38,20.62,20.62,0,0,1,.16-5.27,1.63,1.63,0,0,1,2-1.67,2.92,2.92,0,0,1,2.39,2.87,37.66,37.66,0,0,1-.56,4.36A2.26,2.26,0,0,1,231.94,314.71Z"/><path class="b" d="M109.66,438.93c1.35.23,1.84,1.05,1.88,2.4,0,1.55.14,3.09.14,4.64a2.69,2.69,0,0,1-.94,2.26,1.55,1.55,0,0,1-2.57-.55,12.63,12.63,0,0,1-.66-2.66,23.27,23.27,0,0,1-.2-2.64A3,3,0,0,1,109.66,438.93Z"/><path class="b" d="M204.41,437c.12-1.06.2-2.12.37-3.17a1.73,1.73,0,0,1,1.86-1.53c.29,0,.59,0,.88,0a2,2,0,0,1,1.87,2.39c-.22,1.48-.59,2.94-.89,4.41a3.25,3.25,0,0,1-.08.43,2.46,2.46,0,0,1-2.26,1.66,2.23,2.23,0,0,1-1.67-2.2c0-.67,0-1.33,0-2Z"/><path class="b" d="M48.09,296.08c-.11.91-.22,1.82-.34,2.74a.83.83,0,0,1-.06.21,2.38,2.38,0,0,1-2,1.81c-1,0-1.64-.67-2-1.93a11.63,11.63,0,0,1,0-5.47,1.7,1.7,0,0,1,1.63-1.28c1.92-.12,2.39.29,2.74,2.58a8.45,8.45,0,0,1,0,1.33Z"/><path class="b" d="M226.4,216.2c0,.63,0,1.15,0,1.66a2.2,2.2,0,0,1-1.55,1.83,2,2,0,0,1-2-1.06,8.73,8.73,0,0,1-1-5.66,2.12,2.12,0,0,1,1.63-1.73,2,2,0,0,1,2.38,1.29A8.2,8.2,0,0,1,226.4,216.2Z"/><path class="b" d="M65,438.43c0-.7,0-1.4,0-2.1a3.65,3.65,0,0,1,.12-.87,1.88,1.88,0,0,1,1.67-1.52,2,2,0,0,1,1.67,1.44,12.4,12.4,0,0,1,.35,4.89c-.08.44-.07.88-.11,1.32a2,2,0,0,1-1.91,1.92,1.62,1.62,0,0,1-1.65-1.45c-.13-1.2-.18-2.41-.26-3.62Z"/><path class="b" d="M217.2,321.79c.2-1.42.36-2.84.62-4.25a1.51,1.51,0,0,1,1.23-1.39,1.63,1.63,0,0,1,1.85.88c.31.57.92,1.08,1,1.67a7.79,7.79,0,0,1-1.36,5.43,1.81,1.81,0,0,1-3.25-1.22c0-.37,0-.74,0-1.11Z"/><path class="b" d="M57.07,349a20.21,20.21,0,0,1,.48-2.24,1.5,1.5,0,0,1,1.69-1.13,1.73,1.73,0,0,1,1.49,1.28,5.5,5.5,0,0,0,.49,1.2,6,6,0,0,1,.52,3,5.19,5.19,0,0,1-.39,1.92,1.82,1.82,0,0,1-1.85,1.31,1.75,1.75,0,0,1-1.77-1.4,25.28,25.28,0,0,1-.54-3.36,3.37,3.37,0,0,1,0-.55Z"/><path class="b" d="M109.29,417.77c1.37.56,1.66,1,1.61,2.39-.05,1.62-.16,3.24-.29,4.85a2.19,2.19,0,0,1-1.78,2.1,1.38,1.38,0,0,1-1.52-.87,5.12,5.12,0,0,1-.41-2.13c.12-1.53.48-3,.64-4.57A1.78,1.78,0,0,1,109.29,417.77Z"/><path class="b" d="M164.14,411.26a2.51,2.51,0,0,1-2.06-2.74c0-.59,0-1.18,0-1.77a4.13,4.13,0,0,1,1.67-3.21,1.61,1.61,0,0,1,2.4.72,5.47,5.47,0,0,1,.35,3.14,9.94,9.94,0,0,1-.51,2.36A2.32,2.32,0,0,1,164.14,411.26Z"/><path class="b" d="M73.74,487.37a2.43,2.43,0,0,1-.21.72,1.76,1.76,0,0,1-1.75,1.13,1.55,1.55,0,0,1-1.4-1.36,24.74,24.74,0,0,1-.79-6,1.71,1.71,0,0,1,1.21-1.68,1.54,1.54,0,0,1,1.63.65,1,1,0,0,1,.24.37c.37,1.9.72,3.81,1.08,5.71A3.87,3.87,0,0,1,73.74,487.37Z"/><path class="b" d="M70.48,464.37c0,.55,0,1.11,0,1.66a2.17,2.17,0,0,1-.26.94,1.63,1.63,0,0,1-3.13-.33,16.84,16.84,0,0,1-.3-5.48,1.79,1.79,0,0,1,3.51.13c.14,1,.2,2,.29,3.07Z"/><path class="b" d="M59.85,224.37c1.7,0,2.37,1.13,1.67,2.67a3.14,3.14,0,0,1-1.88,1.76c-1.1.37-2.17.95-3.41.48a1.74,1.74,0,0,1-.74-3A7.15,7.15,0,0,1,59.85,224.37Z"/><path class="b" d="M99.52,459.13a3.76,3.76,0,0,1,0-.89,1.7,1.7,0,0,1,1.22-1.32,1.44,1.44,0,0,1,1.48.55,5.9,5.9,0,0,1,1.67,4.95,2,2,0,0,1-1.69,1.79,1.7,1.7,0,0,1-1.89-1.22c-.43-1.24-.69-2.54-1-3.81Z"/><path class="b" d="M103,436.75a22.74,22.74,0,0,1-.55,2.34,1.46,1.46,0,0,1-1.4,1.07,1.53,1.53,0,0,1-1.58-1,2.92,2.92,0,0,1-.39-1.14,15.42,15.42,0,0,1,0-3.84,2.06,2.06,0,0,1,1.2-1.61c.68-.26,1.31.11,1.86.85A6.06,6.06,0,0,1,103,436.75Z"/><path class="b" d="M109.86,484.81a1,1,0,0,1,1.12.69c.51,1.33,1.08,2.65,1.46,4a1.92,1.92,0,0,1-1.73,2.45,1.46,1.46,0,0,1-1.58-1.12c-.38-1.34-.74-2.69-1-4.06A1.66,1.66,0,0,1,109.86,484.81Z"/><path class="b" d="M76.83,472.75c-1.37-.32-1.7-1.34-1.74-2.52,0-1-.41-2,.13-3a1.54,1.54,0,0,1,2.76-.29c.09.11.23.26.21.37-.15.87.4,1.55.6,2.31C79.2,471.21,78.5,472.29,76.83,472.75Z"/><path class="b" d="M78,448.52c0,.33,0,.67,0,1a2.06,2.06,0,0,1-1.42,1.81,1.32,1.32,0,0,1-1.71-.62,5,5,0,0,1-.2-4.57,1.39,1.39,0,0,1,2.09-.76A3,3,0,0,1,78,447.63c0,.29,0,.59,0,.89Z"/><path class="c" d="M205.87,132.16a27.06,27.06,0,0,1-2.46,1.91,3.74,3.74,0,0,1-4.78-1,3.15,3.15,0,0,1-.44-1.11,1,1,0,0,1,.56-1.11,1.13,1.13,0,0,1,1.34.22c.1.1.19.23.28.34a1.47,1.47,0,0,0,2.38.28,4.41,4.41,0,0,0,1.08-1.24,8.89,8.89,0,0,0,1-4c-.83-.74-1.69-1.56-2.61-2.28a3.19,3.19,0,0,1-1.44-2.84,1.44,1.44,0,0,1,.85-1.43,1.53,1.53,0,0,1,1.75.34c.91.93,1.8,1.87,2.7,2.81.13.13.24.27.38.44.89-.69,1.73-1.4,2.63-2a7.79,7.79,0,0,1,2-1,1.6,1.6,0,0,1,2.14,1.93,3.82,3.82,0,0,1-2,2.51c-1,.65-2.08,1.29-3.19,2a6.6,6.6,0,0,0,.11,4.3,2,2,0,0,0,3.36.85c.21-.16.38-.36.59-.51a1.16,1.16,0,1,1,1.65,1.63,4.76,4.76,0,0,1-3.45,1.8,4.15,4.15,0,0,1-4.05-2.21Z"/><path class="c" d="M188,113.5a4.94,4.94,0,0,1-5.07-4.38,2.49,2.49,0,0,1,0-.77,1.14,1.14,0,0,1,2.27-.14,8.17,8.17,0,0,1,.22,1,2.69,2.69,0,0,0,4.45,1.2,7.07,7.07,0,0,0,1-1.56c.18-.32.27-.69.43-1a1.17,1.17,0,0,1,1.46-.7c.55.18.78.6.72,1.34A5.85,5.85,0,0,1,188,113.5Z"/><path class="c" d="M219.17,110a1.27,1.27,0,0,1,1-1.4c.64-.09,1.1.25,1.31,1.08a2.57,2.57,0,0,0,2.07,2.2,3.53,3.53,0,0,0,3.37-1.28,7.7,7.7,0,0,0,.78-1.34c.42-.8,1-1.12,1.56-.88s.92.89.61,1.79a5.81,5.81,0,0,1-3.27,3.59,7,7,0,0,1-3.6.46C220.94,114,219.14,111.43,219.17,110Z"/><path class="c" d="M124.57,94c.09-.24.25-.46.41-.77a1.59,1.59,0,0,1,.19.37c.17,1.66.42,3.31.47,5,.13,4.22.16,8.45.26,12.67.08,3.22.18,6.45.32,9.67a5.19,5.19,0,0,0,.49,1.94,2.68,2.68,0,0,0,2.9,1.51,2.79,2.79,0,0,0,2.32-2.33,7,7,0,0,0,0-1.37c-.1-4-.24-8.09-.33-12.13-.07-3.12-.08-6.24-.12-9.36q0-.58-.06-1.17c-.22-2.87-.47-5.73-.68-8.59a11.55,11.55,0,0,0-1.38-4.66,3.17,3.17,0,0,0-4.17-1.52,5.52,5.52,0,0,0-2.11,1.55,22.32,22.32,0,0,0-2.48,3.82c-1,1.86-1.71,3.82-2.54,5.74-.14.31-.27.62-.4.94a1.64,1.64,0,0,1-.34-.92,42,42,0,0,0-1.44-7.62,9.54,9.54,0,0,0-2.27-4,3.22,3.22,0,0,0-4.59-.36,4.8,4.8,0,0,0-.91.89c-1,1.34-1.93,2.71-2.89,4.07-.16.22-.3.45-.45.68a14.56,14.56,0,0,1,.19-2.66c.17-1.23.44-2.45.54-3.68a2.77,2.77,0,0,0-2.07-3,2.86,2.86,0,0,0-3.35,1.62,5.45,5.45,0,0,0-.46,1.52c-.23,1.33-.4,2.67-.58,4-.82,6-1.72,11.93-2.15,18-.41,5.7-.68,11.4-.75,17.11a4.93,4.93,0,0,0,.22,1.57,2.86,2.86,0,0,0,5.24.42,5,5,0,0,0,.46-1.52c.37-2,.58-4.15,1.07-6.18q2-8.16,4.22-16.27c.66-2.46,1.51-4.87,2.3-7.3a15.62,15.62,0,0,1,.74-1.61l.28.05a22.26,22.26,0,0,1,.89,5.31,99.86,99.86,0,0,1,0,13.4c-.25,3.28-.33,6.59-.47,9.88a4.75,4.75,0,0,0,.09,1.06,2.85,2.85,0,0,0,5.44.68,9.06,9.06,0,0,0,.5-1.73c.37-1.62.63-3.28,1.08-4.88,1.29-4.5,2.61-9,4-13.46C123,98.14,123.8,96.07,124.57,94Z"/><path class="c" d="M110.49,180.53c-.21-2.68-.63-5.35-1-8-.21-1.51-.57-3-.72-4.51a68,68,0,0,0-1.76-9,3.44,3.44,0,0,0-4.27-2.72,6.58,6.58,0,0,0-1.61.52,9.15,9.15,0,0,0-3.43,2.8A20.43,20.43,0,0,0,95,164.21c-.45,1.08-.92,2.16-1.39,3.23a4.59,4.59,0,0,1-.47.72c-.21-1.15-.36-2.09-.55-3a16.17,16.17,0,0,0-2.11-5.87,3.87,3.87,0,0,0-6.27-.8,14.34,14.34,0,0,0-1.89,2.15A32.35,32.35,0,0,0,78,169.13c-.1.3-.25.59-.37.88a2.73,2.73,0,0,1-.18-1.22c.09-3.59.2-7.17.27-10.75a5.68,5.68,0,0,0-.22-1.79,2.83,2.83,0,0,0-5.38,0,5.54,5.54,0,0,0-.25,1.57c0,1.59,0,3.19-.08,4.79-.18,9.68-.5,19.37.5,29a30.19,30.19,0,0,0,.42,3.69,2.82,2.82,0,0,0,4.36,1.76,3,3,0,0,0,1.33-2.32c.1-1,.16-1.91.3-2.86a140.75,140.75,0,0,1,4-18.49,29.68,29.68,0,0,1,3.13-7.55c.17-.27.37-.52.66-.91.12.4.19.56.22.73.21,1.12.4,2.23.6,3.35a78.3,78.3,0,0,1,1.12,20.56,6.36,6.36,0,0,0,0,1.38,2.9,2.9,0,0,0,2.53,2.5,2.83,2.83,0,0,0,3-2,7.44,7.44,0,0,0,.31-1.56c.13-1,.15-2,.34-3,.73-3.72,1.5-7.44,2.27-11.15a49.62,49.62,0,0,1,3.74-10.17,17.46,17.46,0,0,1,1.1-1.86l.27.05c.11.47.25.93.33,1.4.54,3.29,1.17,6.57,1.57,9.87.42,3.49.63,7,.9,10.49.15,1.91.19,3.83.36,5.74a4.14,4.14,0,0,0,.57,1.69,2.79,2.79,0,0,0,5.16-1.23,9.12,9.12,0,0,0,0-1.17C110.87,187.26,110.77,183.88,110.49,180.53Z"/><path class="c" d="M73.62,51.66a9.75,9.75,0,0,0,.82-1.84,103.4,103.4,0,0,0,3.13-12.26c.81-3.94.86-8,1.19-12s.56-8.07,1.21-12.07c.45-2.8.8-5.61,1.15-8.43a13,13,0,0,0,.1-2.65A2.52,2.52,0,0,0,79.32.14a2.7,2.7,0,0,0-3,.87,3.88,3.88,0,0,0-.85,2.14c-.35,2.71-.62,5.43-1.07,8.12C73.35,17.65,73,24.1,72.59,30.54A54.29,54.29,0,0,1,70,43.4a5.31,5.31,0,0,1-.23-.55C69,40.42,68.17,38,67.4,35.58a52.77,52.77,0,0,1-2.63-10A47,47,0,0,0,64,20.9a31.89,31.89,0,0,1-.84-6,13.1,13.1,0,0,0-.37-2.73A2.88,2.88,0,0,0,60.15,10a3,3,0,0,0-2.9,1.77,4.4,4.4,0,0,0-.42,1.2c-.22,1.15-.34,2.32-.59,3.46-.57,2.53-1.15,5.05-1.8,7.56-1,3.7-2.11,7.36-3,11.09-1.48,6.39-2.41,12.9-4,19.26a6.09,6.09,0,0,0-.13,2.21,2.81,2.81,0,0,0,5.54.29c.16-.58.25-1.18.38-1.77.8-3.74,1.64-7.48,2.38-11.23A114.45,114.45,0,0,1,59,29.66c.07-.21.17-.41.32-.74.39,1.39.69,2.62,1.08,3.84,1.33,4.15,2.69,8.29,4,12.44.42,1.28.78,2.59,1.31,3.82a13.77,13.77,0,0,0,1.68,3.06A3.6,3.6,0,0,0,73.62,51.66Z"/><path class="c" d="M91.56,54.59a21.76,21.76,0,0,0,2,1.36,7.39,7.39,0,0,0,7.79,0,18.63,18.63,0,0,0,6.06-5.89,22.48,22.48,0,0,0,2.86-6.84,59.84,59.84,0,0,0,1.17-8.42c0-.41.11-.82.17-1.23l1.56-.31a22.39,22.39,0,0,0,7.52-2.86,5.14,5.14,0,0,0,2-1.91,2.82,2.82,0,0,0-.4-3.35,2.75,2.75,0,0,0-3.32-.54,12.21,12.21,0,0,0-1.08.68,15.48,15.48,0,0,1-6,2.29c0-.56,0-1,0-1.33,0-1.42,0-2.84,0-4.26a14.28,14.28,0,0,0-3.47-9.28,8.38,8.38,0,0,0-8.07-3.06,2.9,2.9,0,0,1-1.24-.1,3.9,3.9,0,0,0-4.49,1.26,7.94,7.94,0,0,0-1,1.4,54.39,54.39,0,0,0-5.3,14c-.38,1.92-.65,3.85-1,5.77a37.94,37.94,0,0,0-.27,14.9C87.72,50,88.88,52.71,91.56,54.59ZM99,21c.1-.84.16-1.69.33-2.52a4.52,4.52,0,0,1,1.34-2.37,1.82,1.82,0,0,1,2.41-.36,3,3,0,0,1,.83.65,8.73,8.73,0,0,1,2.2,5.2c.08,1.77,0,3.54,0,5.32a2.2,2.2,0,0,1-.13.54,4.68,4.68,0,0,1-.75-.16,13.56,13.56,0,0,1-5.08-3.21A3.65,3.65,0,0,1,99,21ZM93,33.29c.37-2,.7-4,1-6,.06-.3.16-.6.24-.9l.23,0a15.5,15.5,0,0,0,4.88,4.52,17.75,17.75,0,0,0,6.28,2.49c-.06.83-.11,1.59-.18,2.36a34.4,34.4,0,0,1-1.34,7.73,13.74,13.74,0,0,1-5.44,7.27,2.08,2.08,0,0,1-2.38.06,7,7,0,0,1-3.63-5.28A32.56,32.56,0,0,1,93,33.29Z"/><path class="c" d="M42.89,121.6a6.85,6.85,0,0,0,.24-1.57c.26-3,.51-6.08.77-9.11,0-.4.15-.79.26-1.38,1.21,1.42,2.36,2.59,3.28,3.92,1.51,2.14,2.91,4.37,4.28,6.6a15.57,15.57,0,0,0,4,4.39,5.37,5.37,0,0,0,1.58.85,2.78,2.78,0,0,0,3-4.43,8.59,8.59,0,0,0-1.16-1.09,10.93,10.93,0,0,1-2.61-3c-.87-1.5-1.74-3-2.73-4.44a43.63,43.63,0,0,0-3.65-4.69,17,17,0,0,1-2.74-4.71,1.17,1.17,0,0,1,.21-.32,4.18,4.18,0,0,1,.58-.46,32,32,0,0,0,9.09-9.45,19,19,0,0,0,2.47-5.16c1.38-4.64.82-11-5.7-14.57a5.47,5.47,0,0,0-2.2-.71A10.32,10.32,0,0,0,44,74.4a4.31,4.31,0,0,0-1.69,2.93c-.66,5.64-1.37,11.27-2.06,16.9-.91,7.46-2.14,14.89-2.69,22.39a39.68,39.68,0,0,0-.12,4.36,2.69,2.69,0,0,0,2.47,2.63A2.79,2.79,0,0,0,42.89,121.6ZM46.57,90c.42-3.3.86-6.6,1.3-9.9.09-.69.08-1.52.9-1.77a3.27,3.27,0,0,1,2.95.06c2.68,1.7,3.17,4.08,2.56,6.94a12.74,12.74,0,0,1-1.64,3.77A27.77,27.77,0,0,1,46.74,96c-.23.2-.5.35-.75.53l-.18-.14C46.06,94.23,46.3,92.09,46.57,90Z"/><path class="c" d="M61.06,189c-.24-3.08-.45-6.15-.55-9.23-.07-2.23,0-4.48.09-6.71.17-3.46.45-6.93.67-10.39.2-3.12.43-6.23.54-9.34.09-2.4-1.94-3.71-4.21-2.89a3.33,3.33,0,0,1-1.54.11,6,6,0,0,0-3,.28,18.49,18.49,0,0,0-7.94,6,7.73,7.73,0,0,0-.84,1.48c-.48,1-.91,2.08-1.38,3.12-3.51,7.64-4.25,15.67-3.27,23.92a23.45,23.45,0,0,0,1.65,6.37A5,5,0,0,0,45.69,195c.92.06,1.84.05,2.76,0A6,6,0,0,0,54,191.65l1.11-2c.3,1.2.5,2.22.81,3.19a3.53,3.53,0,0,0,2.17,2.33,3.08,3.08,0,0,0,3.47-.91,2.88,2.88,0,0,0,.1-3.38A4.9,4.9,0,0,1,61.06,189Zm-5.89-25.5c-.34,3.27-.63,6.57-1.19,9.82a54.35,54.35,0,0,1-4.2,13.91c-.31.67-.69,1.3-1.08,2l-2.14,0c-.13-.33-.31-.67-.42-1a21.68,21.68,0,0,1-1-6.38c0-2.91.12-5.82.33-8.72a24.35,24.35,0,0,1,1.72-6.68c.68-1.78,1.48-3.53,2.22-5.29a5.37,5.37,0,0,1,1.73-2.26c1-.72,1.93-1.44,2.93-2.11a1.49,1.49,0,0,1,1.52-.26,8.87,8.87,0,0,1,.07,1.07C55.49,159.53,55.38,161.51,55.17,163.49Z"/><path class="c" d="M154.93,112.89l.5-.9.15.07c.16,2.08.26,4.17.5,6.25q.48,4.11,1.13,8.22a5.14,5.14,0,0,0,.79,1.94,2.71,2.71,0,0,0,3,1A2.75,2.75,0,0,0,163,127a6.65,6.65,0,0,0-.08-1.48,125.4,125.4,0,0,1-1.66-19.92,70,70,0,0,1,.61-10.82c.23-1.55.57-3.07.79-4.62a3.1,3.1,0,0,0-1.25-3.19,2.68,2.68,0,0,1-1.1-1.49,5.29,5.29,0,0,0-1.9-2.76,7.41,7.41,0,0,0-8.13-.19,18.91,18.91,0,0,0-3.21,2.78,39.63,39.63,0,0,0-8.34,15c-.06.21-.09.42-.14.63a44.87,44.87,0,0,0-.58,9.11c0,4.54,2.37,7.79,6,10.15a4.83,4.83,0,0,0,6.11-.49,14.57,14.57,0,0,0,2.39-2.69C153.41,115.7,154.14,114.27,154.93,112.89Zm-6-1a12.53,12.53,0,0,1-2.2,3.14c-1.77-1.36-3-2.92-2.91-5.14s.15-4.32.3-6.48a9.67,9.67,0,0,1,.55-2.48,35.46,35.46,0,0,1,5.56-10.35,30.25,30.25,0,0,1,2.73-2.82,1.45,1.45,0,0,1,1.82-.29,6.85,6.85,0,0,1,1,3.88,3.11,3.11,0,0,0,0,.53,17.2,17.2,0,0,1-1.38,7.56A91.39,91.39,0,0,1,148.89,111.85Z"/><path class="c" d="M29.4,104.21A30.19,30.19,0,0,0,30,97a42.28,42.28,0,0,0-.86-10.32c-.53-2.78-1.9-5.18-3-7.73-1.59-3.79-7.21-7.68-12.25-6.58-1.83.39-3,1.21-3.41,3A44.29,44.29,0,0,0,9.58,80c-.38,3.24-.66,6.49-1,9.74-.44,4.91-.83,9.83-1.28,14.74-.36,3.88-.77,7.76-1.14,11.65a47.79,47.79,0,0,0-.34,4.77,2.92,2.92,0,0,0,3.66,3,6.66,6.66,0,0,0,1.89-.67c1.19-.63,2.32-1.37,3.5-2a38.63,38.63,0,0,0,8.44-6.43A20.86,20.86,0,0,0,29.4,104.21Zm-12.11,8.21c-1.11,1-2.35,1.84-3.55,2.72-.44.33-1,.56-1.6.94,0-.58,0-1,0-1.32.37-3.74.77-7.48,1.12-11.22.57-6,1.1-12,1.65-18,.18-1.94.36-3.88.58-5.82a12.69,12.69,0,0,1,.38-1.59,4.84,4.84,0,0,1,1.25.12A6.41,6.41,0,0,1,21,81.57c.45,1,.95,2.06,1.45,3.08a18.72,18.72,0,0,1,1.4,5.44,41.23,41.23,0,0,1,0,12.3,12.88,12.88,0,0,1-2.89,6.31A36.52,36.52,0,0,1,17.29,112.42Z"/><path class="c" d="M81.06,115.14c.31-.32.61-.66,1.07-1.16,0,.43.08.57.07.71-.21,4.1,1.14,7.9,2.29,11.73A4.74,4.74,0,0,0,86,128.73a2.93,2.93,0,0,0,3.64.23,2.73,2.73,0,0,0,.87-3.43,34.64,34.64,0,0,1-2.07-6.8,12.77,12.77,0,0,1-.33-3,131.87,131.87,0,0,1,.8-15.51c.76-5.87,1.25-11.78,2.55-17.58a6.85,6.85,0,0,0,.14-2.21,2.82,2.82,0,0,0-4.49-2c-.26.18-.5.38-.57.43a21.09,21.09,0,0,0-3.37,0,9.56,9.56,0,0,0-6.95,4.44c-.92,1.52-1.75,3.1-2.7,4.59a36,36,0,0,0-5.58,19.48,14.38,14.38,0,0,0,2,7.19,6,6,0,0,0,5.43,3.17A7.4,7.4,0,0,0,81.06,115.14Zm-7.33-7.21a29.68,29.68,0,0,1,4.45-16.51c.95-1.54,1.84-3.12,2.74-4.69a4,4,0,0,1,2.56-1.93,7.23,7.23,0,0,1,1.3-.09,5.74,5.74,0,0,1,0,.75c-.78,4.69-1.51,9.38-2.37,14.06a26.54,26.54,0,0,1-5.21,11.18c-.48.64-1,1.33-2.08,1.13A7.25,7.25,0,0,1,73.73,107.93Z"/><path class="c" d="M142.1,193.62a2.62,2.62,0,0,1-.92-1.39c-.43-1.68-.91-3.35-1.3-5a13.05,13.05,0,0,1-.4-2.84,105.43,105.43,0,0,1,1.22-19.2,40.23,40.23,0,0,0,.47-4.23,3.35,3.35,0,0,0-1-2.69,8.39,8.39,0,0,1-1.28-1.52,6.67,6.67,0,0,0-8.38-2.28,16.09,16.09,0,0,0-5.57,4.7,36.86,36.86,0,0,0-7.3,22.48,17,17,0,0,0,1.16,6.14,5.6,5.6,0,0,0,3.61,3.52,7.06,7.06,0,0,0,7.5-1.6c1.06-1,2-2.21,3-3.33.23-.26.43-.54.79-1,.1.52.15.8.21,1.07.57,2.45,1.09,4.91,1.75,7.34a15.07,15.07,0,0,0,1.32,3.13,3.68,3.68,0,0,0,2.68,1.92,3.11,3.11,0,0,0,3.3-1.62A2.83,2.83,0,0,0,142.1,193.62ZM134.32,167a65.15,65.15,0,0,1-4.27,12.67,17.67,17.67,0,0,1-3.88,5.54,1.63,1.63,0,0,1-2,.46c-.14-.5-.35-1.09-.48-1.69a19.51,19.51,0,0,1,.05-7.5,32.24,32.24,0,0,1,5.46-13.37,10.38,10.38,0,0,1,3.22-3c.29-.17.62-.3,1.06-.5l1.42,2.37A23.36,23.36,0,0,1,134.32,167Z"/><path class="c" d="M32.58,198.06c-1,.14-2,.33-3,.5l-5.27.84c-.05-.89-.15-1.76-.14-2.63.05-3.69.14-7.38.2-11.07q.21-12.4.41-24.8c0-1.52,0-3.05.13-4.57.2-3.54.46-7.08.66-10.62a5.68,5.68,0,0,1,.61-2.44,2.75,2.75,0,0,0-1.6-3.9,3.17,3.17,0,0,0-4,1.58,7.46,7.46,0,0,0-.67,2.55c-.49,6-.91,12.09-1,18.17,0,3.83-.19,7.66-.25,11.49-.13,8.3-.26,16.6-.34,24.9a20.9,20.9,0,0,0,.39,4,3.76,3.76,0,0,0,3.49,3.21,15,15,0,0,0,3.28-.12c2.11-.28,4.2-.66,6.29-1a12.2,12.2,0,0,0,2.45-.68,2.83,2.83,0,0,0-1.67-5.39Z"/><path class="c" d="M10.23,197.24c-.42,0-.84.15-1.26.2-.8.11-1.6.19-2.53.3-.06-1.05-.1-1.89-.16-2.73-.15-2-.43-4-.44-6,0-4.5.09-9,.16-13.51,0-.75.1-1.49.17-2.23.2-2.44.54-4.87.58-7.31.12-6.57.71-13.11,1.07-19.66,0-.88.29-1.74.41-2.62a2.86,2.86,0,0,0-1.75-3.09,2.82,2.82,0,0,0-3.38,1.09,4.37,4.37,0,0,0-.68,1.55,32.91,32.91,0,0,0-.48,3.57c-.11,1.31-.05,2.63-.17,3.93-.34,3.79-.69,7.56-.69,11.37,0,1.52,0,3-.16,4.57A145.12,145.12,0,0,0,0,182.76c0,2.76,0,5.53.08,8.3.07,2,.32,4,.46,6,.06,1,0,2,.09,3a3.66,3.66,0,0,0,3.59,3.53,23.74,23.74,0,0,0,6.45-.61,4.13,4.13,0,0,0,1.43-.66,2.79,2.79,0,0,0,1.07-3.29A2.83,2.83,0,0,0,10.23,197.24Z"/><path class="c" d="M160.62,143.36a2.83,2.83,0,0,0-3.36,1.38,6.56,6.56,0,0,0-.67,1.67q-1.44,5.72-2.83,11.45a101.24,101.24,0,0,0-2.59,14.22c-.42,4.55-.58,9.13-.87,13.74a2.77,2.77,0,0,0,2.66,3,2.88,2.88,0,0,0,2.83-1.87,9.48,9.48,0,0,0,.48-2.59c.17-3.05.19-6.1.42-9.14a91,91,0,0,1,2.18-13.53c1.1-4.77,1.95-9.6,3.48-14.26a4.53,4.53,0,0,0,.18-1A2.79,2.79,0,0,0,160.62,143.36Z"/><path class="c" d="M153.86,191.33a3.24,3.24,0,0,0-3.18,3.31,3,3,0,0,0,2.87,3.09,3.44,3.44,0,0,0,3.13-3.54A2.81,2.81,0,0,0,153.86,191.33Z"/><path class="c" d="M84.59,217.56c0,1.71,0,3.42,0,5.12-.23,5.38-.47,10.76-.75,16.13-.19,3.45-.44,6.89-.68,10.34-.34,5-.7,10.07-1,15.1-.25,3.45-.46,6.89-.74,10.33q-.59,7.21-1.25,14.42c-.38,4.18-.84,8.35-1.18,12.52q-.45,5.44-.67,10.89a20.18,20.18,0,0,0,.31,4.1,7.54,7.54,0,0,0,5.63,6.5,26.81,26.81,0,0,0,4.68,1c5.06.5,10.12,1,15.19,1.32,7.93.44,15.87.69,23.81,1,3,.12,6.09.2,9.13.29v.09c1.08,0,2.15,0,3.23,0,4.12.13,8.23.32,12.35.4,4.31.08,8.61.09,12.92.06a16.74,16.74,0,0,0,5.14-.86,6.45,6.45,0,0,0,4.05-3.72,8.5,8.5,0,0,0,.71-2.21,62.79,62.79,0,0,0,.68-7.08c.09-9.91.09-19.83.05-29.74,0-3.56-.16-7.13-.33-10.68q-.34-7.07-.83-14.12c-.19-2.74-.48-5.47-.79-8.2-.37-3.24-.8-6.48-1.21-9.71-.46-3.57-.92-7.14-1.41-10.7q-1.08-8.06-2.21-16.1a5.87,5.87,0,0,0-.53-1.79,1.89,1.89,0,0,0-.74-.89c-.35,1.06-.71,2.11-1.06,3.17a2.91,2.91,0,0,1-.9,1.36,19.87,19.87,0,0,1-6.52,3.5,40.76,40.76,0,0,1-12,1.33A65.13,65.13,0,0,1,140,220c-3.66-.46-7.32-1-11-1.53-4.06-.56-8.11-1.23-12.19-1.59-3.24-.28-6.52-.15-9.77-.25a95.22,95.22,0,0,0-10.55.39c-1.85.15-3.68.34-5.52.51l-3.66.3a3.62,3.62,0,0,1-.22-.29c-.1-.19-.2-.39-.29-.6-.23-.47-.48-.93-.75-1.37C84.76,216,84.59,216.1,84.59,217.56Zm70.14,88.76a13,13,0,0,1,2,4.81l-2-1C154.69,308.8,154.71,307.59,154.73,306.32Zm-7-60.77a31.83,31.83,0,0,1,5.44-1.73l-2.49,3.37-3.85,5.16c-.17.24-.35.47-.61.79l-1.31-.89C145.82,250.07,146.73,247.91,147.73,245.55ZM111,290.15l.15.15-1,1.08-.15-.15ZM100.65,242.4a3.73,3.73,0,0,1,2.58-1.29c2.19-.14,4.37-.45,6.58-.59a8,8,0,0,1-.82.3,75.68,75.68,0,0,0-9.57,3.42,7,7,0,0,1-.82.21,2.17,2.17,0,0,1,.31-.51C99.48,243.41,100.11,243,100.65,242.4Zm-2.1,2.08-.24.16,0-.12ZM88.41,290.27a9.26,9.26,0,0,1-1.91,2.3,13.56,13.56,0,0,0-4.5,5.08c-.27.48-.53,1-.83,1.53a8,8,0,0,1,1.08-4.44,1.42,1.42,0,0,1,.54-.36,12.64,12.64,0,0,0,3.58-2.57C87,291.24,87.73,290.78,88.41,290.27Z"/><path class="d" d="M144.42,246.85a4.34,4.34,0,0,0,1.43-.55l1.88-4.46.26-.1a3.4,3.4,0,0,0-2.34-3,8.29,8.29,0,0,0-2.63,0,3,3,0,0,0-2.78,2.61,7.11,7.11,0,0,0-.07,2.64A3.67,3.67,0,0,0,144.42,246.85Z"/><path class="d" d="M102.22,219.46a3.6,3.6,0,0,0,2.1-2.82c-2.45,0-4.89.18-7.33.37A3.73,3.73,0,0,0,102.22,219.46Z"/><path class="d" d="M104.41,301.48l-1.24-.05a2.18,2.18,0,0,0-2.06,1.08,5.16,5.16,0,0,0-.2,5.48,4.19,4.19,0,0,0,4.33,2.07,4,4,0,0,0,3.72-2.84,4.08,4.08,0,0,0-1-4.58A4,4,0,0,0,104.41,301.48Z"/><path class="d" d="M135.52,222.05a4.61,4.61,0,0,0,5.79-1.86L140,220c-2.3-.29-4.6-.62-6.89-.95A4,4,0,0,0,135.52,222.05Z"/><path class="d" d="M152,310.76c-.56,0-1.11-.13-1.66-.18a3.27,3.27,0,0,0-2.8,1.05,4.33,4.33,0,0,0,1.07,6.89c3.74,2,7.28-.94,7.07-3.87A3.68,3.68,0,0,0,152,310.76Z"/><path class="d" d="M162.16,296.76a3.41,3.41,0,0,1-.79-.39l-1.85-.72a10.19,10.19,0,0,0-2,.71,4.73,4.73,0,0,0-1.38,6.2,4.39,4.39,0,0,0,4.81,1.92,5,5,0,0,0,3.56-4.37A3.14,3.14,0,0,0,162.16,296.76Z"/><path class="d" d="M148.64,290.11c1.7-.46,2.94-2.14,3-4.5-.14-.58-.37-1.62-.67-2.65a2.23,2.23,0,0,0-.56-.82,4.19,4.19,0,0,0-5.14-.31A4.78,4.78,0,0,0,144.1,288,4.19,4.19,0,0,0,148.64,290.11Z"/><path class="d" d="M103.92,283.52c0-.13,0-.43,0-.72a3.83,3.83,0,0,0-5.08-3.44,6.48,6.48,0,0,1-1,.22,3,3,0,0,0-2.4,1.76,6,6,0,0,0-.41,4.54,4.26,4.26,0,0,0,7.39,1.75A5.76,5.76,0,0,0,103.92,283.52Z"/><path class="d" d="M99.45,263.23a3.86,3.86,0,0,0-1.57-5.44,9.44,9.44,0,0,0-2.79-.69,2.22,2.22,0,0,0-2.42,1.41,27.83,27.83,0,0,0-.88,2.72,4.34,4.34,0,0,0,3,4.13A4.16,4.16,0,0,0,99.45,263.23Z"/><path class="d" d="M115.4,227.42a5.91,5.91,0,0,0,5.63-4.25,4,4,0,0,0-.88-4.14,4.13,4.13,0,0,0-4.32-1.38,5.83,5.83,0,0,0-4.56,4.77A4.16,4.16,0,0,0,115.4,227.42Z"/><path class="d" d="M122.42,285.86c-1.68,0-2.45.27-3.23,1.12a4.77,4.77,0,0,0,.41,6.78,3.83,3.83,0,0,0,2.34.91c2.43.14,4.19-2.2,4.43-3.94a4.15,4.15,0,0,0-.75-3.58A3.76,3.76,0,0,0,122.42,285.86Z"/><path class="d" d="M120,310.44a5.16,5.16,0,0,0-3.14.93,4.05,4.05,0,0,0-1.86,4,3.45,3.45,0,0,0,2.7,3.16,4.47,4.47,0,0,0,5.57-4.39A3.64,3.64,0,0,0,120,310.44Z"/><path class="d" d="M96.55,241.38a4.3,4.3,0,0,0,3.58-1.14l-.71.28a5.49,5.49,0,0,1-.82.22,2,2,0,0,1,.31-.52c.57-.52,1.2-1,1.74-1.54a5.33,5.33,0,0,1,.92-.74,4.47,4.47,0,0,0-.93-4.46,3.18,3.18,0,0,0-2.77-1.13,5.51,5.51,0,0,0-3.06.8,4.61,4.61,0,0,0-1.71,3.58A4.45,4.45,0,0,0,96.55,241.38Zm2-.61-.24.16,0-.12Z"/><path class="d" d="M122.39,239.31a3.44,3.44,0,0,0-3.49,2.24,5.17,5.17,0,0,0-.12,3.79,4.51,4.51,0,0,0,3.84,2.95,4,4,0,0,0,3.81-2.57,11,11,0,0,0,.57-2A4.52,4.52,0,0,0,122.39,239.31Z"/><path class="d" d="M130.46,302.08a4,4,0,0,0-1.51,4.54,4.86,4.86,0,0,0,4.82,3.2,6.78,6.78,0,0,0,.68-.05,4.33,4.33,0,0,0,3.58-3.11,3.85,3.85,0,0,0-1-4.28C135,300.54,132.68,300.7,130.46,302.08Z"/><path class="d" d="M155.78,236.35a4.4,4.4,0,0,0,4.07-4.61,2.74,2.74,0,0,0-1-2.2,5.71,5.71,0,0,1-.67-.72,3.77,3.77,0,0,0-4.41-1.09,4.39,4.39,0,0,0-2.6,4.49A4.47,4.47,0,0,0,155.78,236.35Z"/><path class="d" d="M155.16,256a5.19,5.19,0,0,0-1.1,3c0,2.7,1.39,4.36,3.53,4.59a4.24,4.24,0,0,0,3.81-1.9,3,3,0,0,0,.36-3.24,4.34,4.34,0,0,1-.37-1.26,2.7,2.7,0,0,0-1.68-2.3A3.54,3.54,0,0,0,155.16,256Z"/><path class="d" d="M133.49,270.35a4.2,4.2,0,0,0,4.49-4.41,3.59,3.59,0,0,0-3.56-3.95,10,10,0,0,0-3.76,1.71,2.41,2.41,0,0,0-.33.44A4.25,4.25,0,0,0,133.49,270.35Z"/><path class="d" d="M118.49,263.84a5.08,5.08,0,0,0-3.44-4.52,3.72,3.72,0,0,0-4,.61,7.42,7.42,0,0,0-2.55,4.44c-.4,2.74,1.33,5.94,4.55,5.82A5.52,5.52,0,0,0,118.49,263.84Z"/><path class="e" d="M81.75,295.7l-1.33,0-1,.06-.24,2.71,2-.14A10.12,10.12,0,0,1,81.75,295.7Z"/><path class="f" d="M156.36,322a20.73,20.73,0,0,1,3.69.13c.71,1.68,1.4,3.33,2.1,5h2.78c-.41-.91-.81-1.82-1.21-2.73-.27-.63-.5-1.28-.82-2.1h3.54l.28.24,3.86,3.74a6.87,6.87,0,0,0,2.41-1.35c-1.14-1-2.27-2.05-3.39-3.09-.68-.63-1.31-1.3-1.86-1.85v-2.84c.87.32,1.62.62,2.39.87l5.34,1.67c.11-.88.23-1.76.33-2.65l-7.05-2.2a4.43,4.43,0,0,1-1-.57,10,10,0,0,1,.11-4.18,6.11,6.11,0,0,1,.85.18,52.92,52.92,0,0,0,7.33,1.59c0-.88,0-1.77,0-2.66q-3.81-.76-7.61-1.59a7,7,0,0,1-1.14-.45c-.09-1.39-.18-2.76-.28-4.17,1.25-.36,2.37.1,3.5.17,1.85.12,3.7.36,5.56.52,0-.87,0-1.75,0-2.62-.52,0-1,0-1.55-.05-2.29-.15-4.57-.4-6.85-.61l-.87-.12a27.5,27.5,0,0,1-.4-4.77c1.82,0,3.48,0,5.15,0q2.26,0,4.53-.18c0-.88,0-1.76,0-2.63-.91.07-1.83.13-2.75.17-1.78.08-3.55.15-5.33.16a12.11,12.11,0,0,1-1.92-.31c.08-1.76-.53-3.41-.12-5.17a7.19,7.19,0,0,1,.93,0c3.06.5,6.12,1,9.19,1.51v-2.62q-4.08-.58-8.13-1.21c-.76-.12-1.5-.31-2.26-.47a20,20,0,0,1-.18-5.52H176l-.09-2.66h-9.14c-.43,0-.87,0-1.44-.09-.35-2.12,0-4.19-.32-6.32.58,0,1,0,1.52,0,1.44.11,2.87.29,4.31.35a36.87,36.87,0,0,0,4.46,0l.33,0-.15-2.64c-2.42.07-4.84.05-7.26,0-1.06,0-2.12-.2-3.14-.31-.45-2.19-.48-3.25-.1-4.32a17.48,17.48,0,0,1,2.17,0,60.66,60.66,0,0,0,8.08.4c-.05-.91-.11-1.82-.17-2.72-3.28,0-6.56-.13-9.84-.21a1.86,1.86,0,0,1-.42-.16,23.57,23.57,0,0,1-.21-6.23c1.49.15,2.85.26,4.2.45a40.62,40.62,0,0,0,5.83.42l-.27-2.66c-2.62,0-5.23-.24-7.83-.5-.72-.07-1.44-.23-2.22-.35.07-1.58-.51-3.06-.1-4.71.64.07,1.25.14,1.86.19,1.37.09,2.75.07,4.1.29a12.32,12.32,0,0,0,3.59-.08c-.11-.87-.21-1.73-.32-2.6a13.26,13.26,0,0,1-3,.17c-2.16-.17-4.33-.24-6.61-.59.29-2-.44-3.87-.07-5.83.68.06,1.22.15,1.77.16,2.34,0,4.68.06,7,0h.12c-.11-.85-.23-1.7-.34-2.55a58.76,58.76,0,0,1-8.89-.06c-.16-1.94-.31-3.9-.48-5.92.46-.06.75-.11,1-.12,1.3-.08,2.59-.12,3.88-.23a24.74,24.74,0,0,0,3.55-.55l-.36-2.62c-.49.12-1,.24-1.5.33a21.65,21.65,0,0,1-6.66.51,9.9,9.9,0,0,1-.16-4.64,4.44,4.44,0,0,1,.48-.17l7.12-1.31c-.13-.88-.25-1.76-.37-2.64l-6.8,1.39a5.55,5.55,0,0,1-.82,0c-.07-.6-.14-1.18-.2-1.75a17,17,0,0,1-2.57,1l-.14,0c.07,1,.14,2.08.22,3.12.2,2.54.43,5.09.62,7.63.11,1.55.14,3.11.26,4.66.19,2.59.45,5.16.62,7.75.19,3,.31,5.92.45,8.88.16,3.4.31,6.81.45,10.21q.23,5.5.44,11c.09,2.15.15,4.3.23,6.45.07,1.85.13,3.7.22,5.55q.19,3.78.45,7.54c.21,3.07.46,6.13.69,9.19.08,1,.18,2,.26,3q.31,3.93.62,7.86,0,.56.06,1.11c0,1.89.08,3.78.11,5.66,0,.14-.11.27-.2.49a9.45,9.45,0,0,1-1.07.08c-.92-.05-1.85-.16-2.77-.19-2.93-.09-5.86-.15-8.78-.24-1.56-.05-3.11-.14-4.66-.21-3-.15-5.92-.33-8.88-.45s-6-.16-9-.25c-.22,0-.44,0-.66,0-1.52-.13-3-.28-4.54-.39-1.33-.1-2.66-.16-4-.26-2.58-.2-5.16-.5-7.75-.6-3.78-.15-7.56-.16-11.34-.25q-4.29-.1-8.56-.25a8.59,8.59,0,0,1-1.4-.3c0-.58-.08-1-.07-1.46,0-2.41.14-4.81.19-7.22.08-3.9.12-7.79.23-11.68.11-3.63.29-7.26.44-10.89.07-1.74.15-3.47.22-5.21l.24-7.12q.1-3.56.24-7.11c0-.11,0-.22,0-.33.13-2,.29-4.06.4-6.1s.15-4.07.25-6.11c.06-1.14.15-2.29.25-3.43.2-2.32.42-4.64.62-7,.17-2,.32-4,.5-6s.41-4.27.61-6.41c.18-1.88.34-3.76.5-5.64.14-1.62.27-3.24.4-4.87,0-.51.09-1,.14-1.54s0-.71.07-1.05l-.29,0-2.24.2c-.05.9-.1,1.79-.17,2.69A6.58,6.58,0,0,1,93.8,221l-1.17.06c-2.34,0-4.68,0-7,0a4.58,4.58,0,0,0-1,.15c0,.47,0,1,0,1.42s0,.67,0,1h.68c.4,0,.81-.13,1.21-.14q3.12,0,6.24,0a8.89,8.89,0,0,1,1.08.13c-.2,1.49-.37,2.86-.56,4.35-.86-.09-1.55-.22-2.24-.22-2.2,0-4.39,0-6.59,0,0,.88-.07,1.77-.11,2.66H91.4c.43,0,.86.06,1.45.11l-.37,4.27c-2.34,0-4.53,0-6.71,0-.59,0-1.18,0-1.77,0l-.12,2.58H91c.42,0,.85.07,1.33.11-.17,1.64-.32,3.14-.48,4.71-.51,0-.91.07-1.3.07-2.31,0-4.63,0-6.94,0,0,.9-.11,1.8-.17,2.7l.69,0c1.44-.07,2.88-.14,4.32-.19,1,0,2.06,0,3.24,0-.43,1.6,0,3.11-.66,4.6-.37,0-.77,0-1.17,0H83.12l-.18,2.46c2.27,0,4.54,0,6.81,0,.39,0,.78.06,1.24.1,0,1.44.23,2.78-.43,4.13H89.34l-6.69,0-.18,2.48h7.18a7.13,7.13,0,0,1,1.13.2c-.48,2.11.11,4.18-.66,6.23H88.89c-2-.06-4-.18-6-.18a8.43,8.43,0,0,0-.86.05c-.06.86-.11,1.73-.17,2.6H89c.39,0,.78.05,1.22.07-.25,1.81,0,3.52-.25,5.19-2.23.11-4.33.19-6.44.32a8.64,8.64,0,0,0-2,.33.44.44,0,0,0-.15.08l-.09,1.15c0,.29,0,.58-.07.87a1.47,1.47,0,0,0,.65.22,8.22,8.22,0,0,0,1.11,0l2.55-.2c.81-.06,1.62-.13,2.43-.17.58,0,1.16,0,1.84,0a19.55,19.55,0,0,1-.12,4.08c-.39.05-.64.11-.9.12-2.33.08-4.67.13-7,.23-.31,0-.63,0-.94.07-.07.85-.15,1.7-.22,2.55,2.82-.1,5.64-.23,8.46-.35a2.76,2.76,0,0,1,.48.12,39.37,39.37,0,0,1-.26,5.39H88c-2.6,0-5.2,0-7.8,0,0,.5-.08,1-.13,1.5s-.07.72-.1,1.08c.47-.05.94-.1,1.42-.11q3.56,0,7.13,0a3.18,3.18,0,0,1,.66.2,31.2,31.2,0,0,1-.14,5.21,4.55,4.55,0,0,1-.75.13l-5,.15a19.38,19.38,0,0,0-1.27,2l-.38.69,2.43-.16c.52,0,1-.1,1.55-.14a12.82,12.82,0,0,1,3.38.06,39.18,39.18,0,0,1-.13,5.4l-6.3.93c-1.3.19-2.6.36-3.89.57-.06.87-.12,1.74-.17,2.61,2-.27,4-.58,6-.89,1.38-.2,2.76-.42,4.23-.65V310c-1.39.75-2.75,1.51-4.12,2.23l-6.19,3.24c0,.36.1.71.15,1.07a11.09,11.09,0,0,0,.42,1.63l.41-.22,6.24-3.43c1-.52,1.95-1,3.1-1.62a8.29,8.29,0,0,1-.11,3.32,22.48,22.48,0,0,1-1.55,2.95q-1.16,2-2.32,4c.87.24,1.76.44,2.65.6l.93-1.69,1.88-3.4,3,.35a5.05,5.05,0,0,1,0,.76c-.3,1.51-.61,3-.92,4.52l2.59.25.45-2.34c.19-1,.37-2,.55-3H99c0,.6.07,1,.07,1.47,0,1.41,0,2.81,0,4.22.82.07,1.65.13,2.47.18v-5.59a7.37,7.37,0,0,1,1.19-.13c1.37,0,2.74.12,4.11.2a7.19,7.19,0,0,1,.81.13c-.06,1.14-.11,2.17-.17,3.2,0,.85-.09,1.69-.14,2.53l2.57.13c0-1.46.07-2.93.12-4.39a11.06,11.06,0,0,1,.32-1.63l4.54.34v5.89l2.47.1c0-1.52,0-3,0-4.54,0-.39,0-.79.07-1.24a17.07,17.07,0,0,1,4.26.29c0,.42.1.71.11,1,0,1.55.09,3.11.14,4.66l2.54.1c0-.05,0-.11,0-.16,0-1.45-.14-2.89-.19-4.33a10.61,10.61,0,0,1,.08-1.17l5.8.49c0,.32.09.5.1.68,0,1.57.09,3.14.14,4.71l2.55.08c0-.34,0-.69,0-1,0-.63-.13-1.25-.15-1.88s0-1.52,0-2.36a56.55,56.55,0,0,1,5.83,0c.13,1.08.28,2,.34,3s.1,1.64.14,2.47h1.19l1.35.05c0-.24,0-.48,0-.72-.12-1.36-.24-2.73-.35-4.09a1.93,1.93,0,0,1,.16-.55l5.73.31c.11.72.26,1.34.29,2,.06,1.1.1,2.19.14,3.29l2.57.07c-.07-.73-.13-1.46-.19-2.19-.07-.95-.09-1.9-.14-2.89a10.05,10.05,0,0,1,3.93.24,1.45,1.45,0,0,1,.13.29c.2,1.55.39,3.1.58,4.65l2.57,0c-.19-1.32-.39-2.63-.58-3.94A8.78,8.78,0,0,1,156.36,322Z"/></svg>