<svg xmlns="http://www.w3.org/2000/svg" viewBox="0 0 280.65 206.13"><path d="M198.58,159.59c-1,2.38-7.86,8.71-17.73,17.63,20.59,37.57-13.91,10.4-21,13.48-8.39,3.64-17.65,12.86-25.92,15.43-8-.2,5.11-15.32,7.65-22.12-10.43-3.51-34.89-9.3-10.59-12.81,9.88-1.82,16.75-3.13,17.5-4.17,1.54-2.17,3.34-6.74,5-11.68,9.15-30.42,9.68,6.38,21.12,6.37C182.64,161.53,200.56,156.45,198.58,159.59Zm-29.94,8.07c-4,1.44-17.41,2.34-17.73,4.14-.5,2.84-3.08,8.92-3.08,8.92,2.65,1.81,12,5.95,12.53,5.52,1.38-1.1,10.61-7.85,12.95-9.55C174.48,175.84,170.13,169,168.64,167.66ZM182.76,193c.07-3.88-5.59-13.69-6.58-13.17-4.29,2.27-8.41,6.09-9.88,7C165.31,187.51,178.68,191.94,182.76,193Zm-28.88-27.29a42.37,42.37,0,0,0,13.06-2C160,140.38,157.18,156.3,153.88,165.75Zm-23,10.41c1,1.61,7.82,3.32,11.79,3.82.85.11,3.08-4.78,3.5-7.11C146.4,171.39,133.5,174.65,130.84,176.16Zm5.84,24.31c.55-.52,14.47-8.62,17.2-11.36.32-.32-7.38-4.48-8.39-3.61C143.16,187.52,139,195,136.68,200.47Zm53.72-37.05c.12-.79-16.88,2.33-16.66,3.39.48,2.44,4.5,6.68,5.2,6.27C183.29,170.53,187.9,165.43,190.4,163.42Z"/><path d="M234,70.26c3.19-1.91,56-22.06,45.2-27.18-16.32-3-35.64-2.55-51.39-4.52-3.3-12.15-2.26-27.2-5.51-37.92-1.89-5.55-16.66,26.44-26.73,38.61-8.5.22-19.75-.21-32.28.43-6.16.31-18.47.21-13.7,3.76,10.37,6.39,22.92,12.86,30.35,21.44-4.55,11-10.71,19.84-15.74,30.15-2.15,4.62-4.52,7.08-.9,8,8.73,1.71,35-18.11,40.34-18.54,2.76,2.34,34.18,32.71,36.36,26.75.37-2.33-2.37-12.09-2.81-20.38C236.33,85.33,234,76.84,234,70.26ZM218.9,11.65c1.19,8.16,1.67,18.42,2.94,27.16L202.13,39C206.78,30.59,214.66,18.23,218.9,11.65ZM162.42,45.84c3.74-1.34,22.2-.22,27.82-.22,1.27,0-3.66,8.85-6.37,12.53C177.5,54.54,167,47.71,162.42,45.84Zm8.07,49.05c1.77-3.33,13.28-26.84,14.65-25.48,8.05,4.86,11.11,8,12.32,10.83C198.09,81.72,183.87,90.22,170.49,94.89Zm17.2-32.06c3.19-6.8,6.56-11.53,9.21-16.66C204.1,44,216.7,44.6,223.36,45a205.2,205.2,0,0,1,3.19,22.08C216.2,72.13,207.46,75.68,206,76,203.83,76.42,195,68.89,187.69,62.83ZM210.2,81.51c7.29-5,18.26-8.49,18.69-7.22a109.51,109.51,0,0,1,4.88,28.46C227.71,97.76,215.75,87.75,210.2,81.51Zm22.72-17.84c-1.06-5.52-2.19-12-3.4-18.26,12.28.59,27.1.21,38,2.13C257.29,54.8,243.69,59.3,232.92,63.67Z"/><path d="M33.42,147c4-26.19,10.75-37.95,8.51-39.22-3-1.68-6.58-3.6-17.68-8.28-8.54-3.6-29.39-9.22-23.08-13.61,15.93-6.44,33.22-10,50.55-15.51C64.81-5,59.41,28.24,78.49,66.13c8.56-1.74,63-21.1,48.35-4.16C98.73,84.28,89,93.48,89.32,95.38c1.51,8.15,7.5,17.21,13.51,41.89.91,3.73-9-2.17-12.48-4-15.31-8-25-14.63-26.45-15.16-.95-.35-6.93,6.1-17.58,20.53C42.74,141.93,33.8,157.72,33.42,147ZM73.88,73.73c-3.82.85-17,2.12-17.62,4-4.74,14.2-4.78,20-6.21,25.69-.72,2.85,11.23,5.55,11.94,5.1,3-1.92,11-8.72,18.69-16.78C80.2,86.2,76,77.55,73.88,73.73Zm-24,5.14c-11.16,2.12-27.43,5-38.38,9.94A327.66,327.66,0,0,0,44.31,102C45.25,99.91,48,91.56,49.83,78.87Zm45.71,51.34C90.15,111.9,85.35,95,82.8,98.15c-2,2.52-7.87,5.78-15.5,14.86A291,291,0,0,0,95.54,130.21ZM87.69,86.9c6.08-6,23.86-18.41,30.36-25.27C109.78,62,91.3,68.21,81.1,72.24,82.34,76.38,84.66,83.07,87.69,86.9ZM58.17,69.48c7-1,14.9-1.94,13.59-4.67-1.9-4-6.52-15.15-8.92-22.29C60.11,47.63,59.44,60.35,58.17,69.48Zm-16.35,66c3.76-4.37,12.52-14.8,15.29-20.17-2.16-1-6.44-3.17-8.71-4.25C46.79,117,42.17,129.77,41.82,135.52Z"/></svg>